<?xml version="1.0" encoding="UTF-8"?> <svg xmlns="http://www.w3.org/2000/svg" width="457" height="429" viewBox="0 0 457 429" fill="none"><path d="M167.231 115.513L167.474 114.383L168.178 111.111C168.801 108.214 169.695 104.058 170.758 98.6982C173.06 87.9956 176.28 72.6142 180.273 53.7782L180.491 54.138L87.1381 35.4856L87.5856 35.1832L74.3297 96.8142L74.065 96.3984L141.194 109.994L160.433 113.928L166.909 115.222L160.547 113.951L141.342 110.204L73.911 96.9119L73.5705 96.8439L73.6453 96.496L86.9168 34.7924L87.2991 34.8688L180.634 53.6078L180.932 53.6673L180.857 54.0152C176.808 72.8409 173.371 88.2691 171.018 99.0061C169.874 104.321 168.981 108.477 168.294 111.33L167.605 114.531C167.444 115.283 167.23 115.513 167.23 115.513L167.231 115.513Z" fill="#BBBBBB"></path><path d="M178.606 63.7983C178.562 64.0124 157.476 59.8203 131.464 54.4129C105.453 49.0057 84.442 44.4463 84.4859 44.2312C84.5293 44.0181 105.693 48.1946 131.69 53.599C157.686 59.0032 178.651 63.5693 178.605 63.7981L178.606 63.7983Z" fill="#BBBBBB"></path><path d="M92.4995 41.2342C92.4803 41.4762 92.3889 41.7082 92.2375 41.8991C92.0861 42.0901 91.882 42.2309 91.6524 42.3026C91.4229 42.3744 91.1788 42.3738 90.9529 42.3008C90.727 42.2279 90.5301 42.0861 90.3884 41.8944C90.2468 41.7027 90.1672 41.4702 90.1603 41.2282C90.1535 40.9861 90.2196 40.746 90.35 40.5399C90.4804 40.3339 90.6687 40.1717 90.8898 40.0751C91.1108 39.9785 91.3542 39.9521 91.5871 39.9995C91.7283 40.0177 91.864 40.0641 91.9863 40.1361C92.1086 40.208 92.2152 40.3041 92.2999 40.4188C92.3846 40.5334 92.4459 40.6645 92.4801 40.8044C92.5143 40.9443 92.5209 41.0904 92.4995 41.2342Z" fill="#BBBBBB"></path><path d="M96.6777 42.1054C96.6585 42.3474 96.5671 42.5793 96.4157 42.7703C96.2644 42.9612 96.0602 43.102 95.8306 43.1738C95.601 43.2456 95.357 43.245 95.1311 43.172C94.9052 43.099 94.7082 42.9572 94.5666 42.7655C94.425 42.5738 94.3454 42.3414 94.3385 42.0993C94.3317 41.8573 94.3978 41.6172 94.5282 41.4111C94.6585 41.205 94.8469 41.0428 95.068 40.9463C95.289 40.8497 95.5323 40.8233 95.7653 40.8706C95.9066 40.8887 96.0423 40.9351 96.1647 41.007C96.287 41.0789 96.3937 41.1749 96.4784 41.2897C96.5632 41.4044 96.6244 41.5355 96.6586 41.6755C96.6928 41.8154 96.6993 41.9615 96.6777 42.1054Z" fill="#BBBBBB"></path><path d="M100.814 42.9674C100.795 43.2094 100.703 43.4414 100.552 43.6323C100.401 43.8233 100.196 43.9641 99.9669 44.0359C99.7373 44.1077 99.4933 44.107 99.2674 44.0341C99.0415 43.9611 98.8445 43.8193 98.7029 43.6276C98.5612 43.4359 98.4816 43.2035 98.4748 42.9614C98.4679 42.7194 98.5341 42.4792 98.6644 42.2732C98.7948 42.0671 98.9831 41.9049 99.2042 41.8083C99.4253 41.7117 99.6686 41.6854 99.9016 41.7327C100.043 41.7508 100.179 41.7971 100.301 41.869C100.423 41.9409 100.53 42.037 100.615 42.1517C100.699 42.2664 100.761 42.3975 100.795 42.5375C100.829 42.6775 100.836 42.8236 100.814 42.9674Z" fill="#BBBBBB"></path><path d="M109.628 85.5042C107.867 85.1217 106.359 84.3865 105.105 83.2984C103.869 82.214 102.993 80.8975 102.477 79.3489C101.983 77.7871 101.921 76.1508 102.293 74.44C102.664 72.7292 103.397 71.2742 104.491 70.075C105.605 68.8625 106.959 68.0211 108.551 67.5509C110.143 67.0806 111.82 67.0367 113.581 67.4191C114.902 67.706 116.074 68.1909 117.097 68.8741C118.119 69.5572 118.928 70.4068 119.523 71.4229L118.07 72.3578C116.986 70.6503 115.385 69.5668 113.268 69.1071C111.862 68.8019 110.513 68.8461 109.222 69.2397C107.93 69.6333 106.833 70.3173 105.929 71.2919C105.043 72.2701 104.449 73.4537 104.147 74.8427C103.846 76.2317 103.896 77.555 104.297 78.8127C104.714 80.0741 105.429 81.1516 106.442 82.0454C107.454 82.9391 108.663 83.5386 110.069 83.8438C112.203 84.3072 114.11 83.9763 115.791 82.8514L116.726 84.3048C115.763 84.9826 114.665 85.4269 113.43 85.6379C112.217 85.8356 110.95 85.791 109.628 85.5042Z" fill="#BBBBBB"></path><path d="M124.971 88.8351C123.65 88.5482 122.425 88.0607 121.298 87.3724C120.187 86.6879 119.377 85.9266 118.867 85.0887L119.918 83.8004C120.422 84.5839 121.163 85.2947 122.142 85.9329C123.125 86.5541 124.183 86.988 125.318 87.2344C126.911 87.58 128.167 87.5513 129.088 87.1482C130.013 86.7282 130.577 86.0524 130.779 85.1208C130.934 84.4093 130.837 83.7941 130.488 83.275C130.157 82.7596 129.701 82.3238 129.122 81.9675C128.547 81.5943 127.73 81.1508 126.671 80.6371C125.406 80.0078 124.409 79.4543 123.679 78.9766C122.953 78.4819 122.372 77.8502 121.935 77.0815C121.516 76.3165 121.426 75.3834 121.665 74.2824C121.86 73.3847 122.274 72.6231 122.906 71.9977C123.542 71.3554 124.399 70.9206 125.477 70.6935C126.555 70.4664 127.823 70.511 129.279 70.8272C130.296 71.0479 131.255 71.407 132.158 71.9045C133.082 72.3889 133.846 72.9539 134.451 73.5995L133.49 74.9607C132.852 74.3077 132.135 73.7707 131.339 73.3496C130.547 72.9117 129.745 72.6045 128.932 72.4279C127.374 72.0896 126.13 72.1389 125.202 72.5759C124.294 72.9996 123.737 73.6857 123.531 74.6343C123.376 75.3457 123.463 75.9676 123.791 76.4999C124.139 77.019 124.61 77.467 125.202 77.8439C125.815 78.2075 126.642 78.6443 127.684 79.1544C128.919 79.7594 129.899 80.3092 130.625 80.8039C131.372 81.2853 131.955 81.9085 132.375 82.6736C132.798 83.4217 132.891 84.3377 132.656 85.4218C132.461 86.3196 132.037 87.0878 131.384 87.7264C130.752 88.3518 129.888 88.7763 128.793 88.9997C127.702 89.2062 126.428 89.1513 124.971 88.8351Z" fill="#BBBBBB"></path><path d="M140.603 92.2288C139.282 91.9419 138.057 91.4544 136.929 90.7661C135.819 90.0816 135.008 89.3203 134.499 88.4824L135.55 87.1941C136.054 87.9776 136.795 88.6884 137.774 89.3266C138.757 89.9478 139.815 90.3817 140.95 90.6281C142.543 90.9737 143.799 90.945 144.72 90.542C145.645 90.1219 146.209 89.4461 146.411 88.5145C146.565 87.8031 146.468 87.1878 146.12 86.6687C145.788 86.1533 145.333 85.7175 144.754 85.3612C144.179 84.988 143.362 84.5445 142.303 84.0308C141.038 83.4015 140.041 82.848 139.311 82.3703C138.585 81.8756 138.003 81.2439 137.567 80.4752C137.148 79.7102 137.058 78.7771 137.297 77.6761C137.492 76.7784 137.906 76.0168 138.538 75.3914C139.174 74.7491 140.031 74.3143 141.109 74.0872C142.187 73.8601 143.455 73.9047 144.911 74.2209C145.928 74.4416 146.887 74.8007 147.79 75.2983C148.714 75.7826 149.478 76.3476 150.083 76.9932L149.122 78.3544C148.484 77.7014 147.767 77.1644 146.971 76.7433C146.179 76.3054 145.377 75.9982 144.564 75.8216C143.006 75.4833 141.762 75.5326 140.834 75.9696C139.926 76.3933 139.369 77.0794 139.163 78.028C139.008 78.7394 139.095 79.3613 139.423 79.8936C139.771 80.4127 140.242 80.8607 140.834 81.2376C141.447 81.6012 142.274 82.0381 143.316 82.5481C144.551 83.1531 145.531 83.7029 146.257 84.1976C147.004 84.679 147.587 85.3022 148.007 86.0673C148.429 86.8154 148.523 87.7314 148.288 88.8155C148.093 89.7133 147.669 90.4815 147.016 91.1201C146.384 91.7455 145.52 92.17 144.425 92.3934C143.334 92.5999 142.06 92.545 140.603 92.2288Z" fill="#BBBBBB"></path><path d="M67.355 144.928L67.1907 144.22L66.715 142.168C66.2938 140.352 65.6896 137.746 64.8598 134.408C63.3037 127.698 61.0175 118.076 58.2456 106.282L58.4649 106.434L0.672387 118.93L0.844764 118.645L9.80535 157.285L9.54462 157.112L51.1518 148.231L63.086 145.708L67.0952 144.841L63.1564 145.693L51.2913 148.315L9.5946 157.445L9.38384 157.491L9.33326 157.273L0.362118 118.587L0.598768 118.536L58.4045 106.094L58.5887 106.054L58.6393 106.272C61.3764 118.075 63.5524 127.778 65.0888 134.52C65.8615 137.852 66.4658 140.458 66.8392 142.265L67.3046 144.271C67.414 144.743 67.3544 144.928 67.3544 144.928L67.355 144.928Z" fill="#BBBBBB"></path><path d="M60.0575 111.951C60.087 112.085 47.0767 115.129 30.9675 118.748C14.8589 122.367 1.79801 125.181 1.76836 125.046C1.739 124.912 14.7894 121.84 30.8895 118.223C46.989 114.606 60.0254 111.808 60.0569 111.951L60.0575 111.951Z" fill="#BBBBBB"></path><path d="M5.53094 121.3C5.58483 121.444 5.59519 121.599 5.56065 121.746C5.52611 121.893 5.44832 122.025 5.33767 122.123C5.22702 122.221 5.08879 122.281 4.9415 122.295C4.79421 122.31 4.64488 122.277 4.51348 122.202C4.38209 122.128 4.2749 122.014 4.20626 121.877C4.13763 121.74 4.11082 121.586 4.12943 121.435C4.14804 121.285 4.21117 121.145 4.31038 121.035C4.40959 120.925 4.54015 120.849 4.68458 120.819C4.76934 120.794 4.85848 120.787 4.94691 120.798C5.03533 120.809 5.12131 120.837 5.19992 120.882C5.27853 120.927 5.34821 120.987 5.40501 121.059C5.46182 121.13 5.50461 121.212 5.53094 121.3Z" fill="#BBBBBB"></path><path d="M8.11835 120.717C8.17224 120.861 8.18261 121.017 8.14807 121.164C8.11353 121.311 8.03572 121.442 7.92507 121.54C7.81442 121.638 7.67621 121.699 7.52891 121.713C7.38162 121.727 7.23229 121.694 7.10089 121.62C6.96949 121.545 6.8623 121.431 6.79367 121.294C6.72503 121.157 6.69822 121.003 6.71683 120.853C6.73544 120.702 6.79857 120.562 6.89778 120.452C6.99699 120.342 7.12756 120.266 7.27199 120.236C7.35674 120.211 7.44589 120.204 7.53435 120.215C7.6228 120.226 7.70882 120.254 7.78745 120.299C7.86608 120.344 7.93577 120.404 7.99255 120.476C8.04933 120.547 8.0921 120.63 8.11835 120.717Z" fill="#BBBBBB"></path><path d="M10.6799 120.141C10.7338 120.284 10.7441 120.44 10.7096 120.587C10.6751 120.734 10.5973 120.865 10.4866 120.963C10.376 121.061 10.2377 121.122 10.0905 121.136C9.94316 121.15 9.79383 121.118 9.66243 121.043C9.53103 120.968 9.42383 120.854 9.35519 120.717C9.28656 120.58 9.25975 120.426 9.27835 120.276C9.29696 120.125 9.36011 119.985 9.45932 119.875C9.55854 119.765 9.6891 119.69 9.83353 119.659C9.91828 119.634 10.0074 119.627 10.0959 119.638C10.1843 119.649 10.2703 119.677 10.349 119.722C10.4276 119.767 10.4973 119.827 10.5541 119.899C10.6109 119.971 10.6536 120.053 10.6799 120.141Z" fill="#BBBBBB"></path><path d="M17.2695 139.259C16.9569 139.327 16.6529 139.323 16.3576 139.245C16.0623 139.168 15.8039 139.022 15.5825 138.809L15.841 138.343C16.2411 138.725 16.6835 138.863 17.168 138.757C17.8454 138.609 18.0964 138.134 17.921 137.332L17.1969 134.018L15.1961 134.455L15.0868 133.955L17.6581 133.393L18.4865 137.183C18.6117 137.757 18.5707 138.219 18.3636 138.57C18.1605 138.914 17.7958 139.144 17.2695 139.259Z" fill="#BBBBBB"></path><path d="M21.0041 134.054C21.5408 133.936 21.982 133.982 22.3278 134.19C22.6725 134.393 22.9023 134.758 23.0173 135.284L23.5741 137.832L23.0426 137.948L22.9026 137.307C22.8242 137.548 22.6757 137.756 22.457 137.929C22.2435 138.101 21.97 138.224 21.6365 138.297C21.178 138.397 20.7894 138.367 20.4706 138.207C20.1519 138.048 19.9532 137.788 19.8746 137.429C19.7984 137.08 19.8619 136.771 20.0653 136.503C20.2739 136.233 20.6544 136.038 21.2067 135.917L22.5119 135.632L22.4573 135.382C22.3798 135.028 22.2222 134.781 21.9843 134.642C21.7454 134.498 21.4357 134.467 21.0553 134.55C20.7948 134.607 20.5544 134.706 20.3341 134.847C20.1126 134.983 19.9324 135.145 19.7935 135.334L19.4529 134.974C19.6226 134.751 19.8431 134.561 20.1144 134.404C20.3845 134.241 20.6811 134.124 21.0041 134.054ZM21.6269 137.84C21.9395 137.772 22.1925 137.643 22.3858 137.453C22.5779 137.258 22.6991 137.013 22.7493 136.719L22.6024 136.046L21.3129 136.328C20.6095 136.482 20.3113 136.804 20.4183 137.293C20.4707 137.533 20.6034 137.703 20.8165 137.804C21.0285 137.9 21.2986 137.912 21.6269 137.84Z" fill="#BBBBBB"></path><path d="M27.561 132.654L26.6306 137.164L26.06 137.289L23.3406 133.576L23.919 133.449L26.2238 136.614L27.0139 132.773L27.561 132.654Z" fill="#BBBBBB"></path><path d="M29.6516 132.164C30.1883 132.047 30.6295 132.092 30.9753 132.3C31.3199 132.504 31.5498 132.868 31.6648 133.394L32.2216 135.942L31.6901 136.059L31.55 135.418C31.4717 135.659 31.3232 135.866 31.1045 136.039C30.891 136.211 30.6175 136.334 30.284 136.407C29.8255 136.507 29.4369 136.477 29.1181 136.318C28.7994 136.158 28.6007 135.898 28.5221 135.539C28.4458 135.19 28.5094 134.881 28.7128 134.613C28.9214 134.343 29.3019 134.148 29.8542 134.028L31.1594 133.742L31.1047 133.492C31.0273 133.138 30.8697 132.891 30.6318 132.752C30.3928 132.608 30.0832 132.577 29.7028 132.66C29.4423 132.717 29.2019 132.816 28.9815 132.957C28.7601 133.093 28.5799 133.255 28.441 133.444L28.1004 133.084C28.2701 132.862 28.4906 132.672 28.7618 132.514C29.032 132.351 29.3286 132.235 29.6516 132.164ZM30.2743 135.95C30.587 135.882 30.8399 135.753 31.0332 135.563C31.2254 135.368 31.3466 135.124 31.3968 134.829L31.2499 134.157L29.9603 134.438C29.2569 134.592 28.9588 134.914 29.0658 135.404C29.1182 135.643 29.2509 135.814 29.464 135.914C29.676 136.01 29.9461 136.022 30.2743 135.95Z" fill="#BBBBBB"></path><path d="M35.3646 135.305C34.9582 135.393 34.5532 135.414 34.1496 135.365C33.7512 135.316 33.427 135.207 33.1772 135.037L33.3064 134.542C33.5477 134.697 33.8461 134.801 34.2017 134.855C34.5562 134.903 34.9079 134.889 35.257 134.812C35.7468 134.705 36.0948 134.536 36.3009 134.306C36.506 134.07 36.5772 133.809 36.5146 133.522C36.4667 133.303 36.3609 133.143 36.1969 133.043C36.0382 132.941 35.855 132.877 35.6474 132.852C35.4387 132.821 35.1533 132.801 34.7912 132.793C34.3568 132.779 34.0069 132.752 33.7415 132.711C33.475 132.666 33.2315 132.563 33.0111 132.404C32.7959 132.244 32.6513 131.994 32.5773 131.656C32.5169 131.379 32.5352 131.113 32.6322 130.857C32.728 130.596 32.9121 130.365 33.1847 130.163C33.4573 129.962 33.8177 129.812 34.2658 129.714C34.5784 129.646 34.8929 129.624 35.2092 129.647C35.5297 129.665 35.8158 129.725 36.0676 129.828L35.973 130.332C35.7108 130.231 35.4414 130.173 35.1649 130.157C34.8873 130.135 34.6235 130.152 34.3734 130.207C33.894 130.311 33.5524 130.484 33.3485 130.725C33.1487 130.96 33.0806 131.223 33.1444 131.515C33.1922 131.734 33.2961 131.897 33.4559 132.004C33.6199 132.105 33.8088 132.17 34.0228 132.2C34.2408 132.223 34.5282 132.239 34.8851 132.249C35.3079 132.26 35.6526 132.288 35.9191 132.334C36.1897 132.373 36.4326 132.473 36.6478 132.633C36.8619 132.788 37.0054 133.033 37.0783 133.366C37.1386 133.642 37.1183 133.911 37.0173 134.174C36.9204 134.43 36.733 134.659 36.4552 134.862C36.1762 135.059 35.8127 135.207 35.3646 135.305Z" fill="#BBBBBB"></path><path d="M40.2495 134.229C39.8431 134.318 39.459 134.309 39.0972 134.202C38.7407 134.095 38.4365 133.902 38.1847 133.624C37.9317 133.341 37.7614 132.998 37.6737 132.597C37.586 132.196 37.5987 131.817 37.7116 131.459C37.8245 131.101 38.0205 130.799 38.2996 130.552C38.5839 130.305 38.9293 130.136 39.3357 130.048C39.69 129.97 40.0206 129.972 40.3275 130.052C40.6385 130.126 40.9037 130.278 41.1233 130.509L40.7706 130.88C40.5907 130.707 40.3858 130.593 40.1557 130.54C39.9245 130.481 39.6865 130.479 39.4416 130.532C39.1446 130.597 38.8911 130.723 38.681 130.911C38.475 131.093 38.331 131.321 38.2491 131.595C38.1723 131.869 38.1681 132.162 38.2364 132.474C38.3059 132.792 38.4325 133.059 38.6163 133.276C38.8041 133.486 39.0301 133.633 39.2942 133.717C39.5623 133.795 39.8449 133.801 40.1419 133.737C40.3867 133.683 40.6026 133.584 40.7894 133.439C40.9761 133.295 41.1151 133.106 41.2061 132.873L41.6818 133.064C41.5784 133.365 41.4014 133.617 41.1507 133.819C40.899 134.016 40.5986 134.153 40.2495 134.229Z" fill="#BBBBBB"></path><path d="M42.75 130.178C42.8199 129.873 42.9671 129.623 43.1917 129.426C43.4215 129.228 43.7266 129.088 44.1069 129.005L44.2248 129.544L44.0902 129.565C43.6577 129.66 43.3481 129.867 43.1613 130.186C42.9745 130.505 42.9334 130.905 43.0382 131.384L43.4959 133.479L42.941 133.6L42.0426 129.489L42.5741 129.373L42.75 130.178Z" fill="#BBBBBB"></path><path d="M45.1185 128.817L45.6734 128.695L46.5718 132.806L46.0169 132.928L45.1185 128.817ZM45.2034 127.856C45.0888 127.881 44.9838 127.863 44.8886 127.802C44.7934 127.741 44.7338 127.656 44.7099 127.547C44.6871 127.442 44.7063 127.343 44.7673 127.247C44.8284 127.152 44.9163 127.092 45.0309 127.067C45.1455 127.042 45.2505 127.06 45.3457 127.121C45.4398 127.177 45.4982 127.257 45.521 127.361C45.5461 127.476 45.528 127.581 45.467 127.676C45.4059 127.771 45.318 127.831 45.2034 127.856Z" fill="#BBBBBB"></path><path d="M49.3286 127.864C49.7141 127.78 50.0826 127.792 50.4339 127.901C50.7841 128.004 51.0825 128.196 51.3291 128.475C51.5757 128.754 51.7434 129.097 51.8323 129.503C51.9222 129.915 51.9133 130.299 51.8056 130.655C51.6979 131.012 51.5071 131.313 51.2332 131.558C50.9634 131.797 50.6331 131.96 50.2423 132.045C49.9089 132.118 49.5919 132.116 49.2913 132.04C48.9948 131.957 48.7316 131.802 48.5016 131.574L49.002 133.864L48.4471 133.985L47.2174 128.358L47.7488 128.242L47.9265 129.055C48.034 128.747 48.2073 128.491 48.4463 128.286C48.6906 128.08 48.9847 127.939 49.3286 127.864ZM50.0956 131.561C50.3822 131.499 50.6285 131.377 50.8345 131.195C51.0394 131.008 51.1802 130.778 51.2569 130.505C51.3389 130.231 51.3457 129.937 51.2774 129.624C51.209 129.312 51.0809 129.05 50.8931 128.84C50.7093 128.624 50.4854 128.474 50.2213 128.389C49.9573 128.305 49.6819 128.294 49.3954 128.357C49.1036 128.421 48.8553 128.546 48.6504 128.733C48.4508 128.918 48.31 129.148 48.228 129.423C48.1501 129.691 48.1453 129.981 48.2137 130.294C48.282 130.606 48.408 130.871 48.5918 131.087C48.7808 131.303 49.0047 131.453 49.2636 131.538C49.5265 131.617 49.8039 131.625 50.0956 131.561Z" fill="#BBBBBB"></path><path d="M55.5229 130.588C55.4392 130.705 55.3249 130.806 55.1799 130.892C55.0391 130.972 54.8853 131.03 54.7186 131.067C54.333 131.151 54.0132 131.112 53.7593 130.949C53.5053 130.786 53.3368 130.515 53.2536 130.134L52.7105 127.649L51.9758 127.809L51.8734 127.34L52.608 127.18L52.4116 126.281L52.9665 126.16L53.1629 127.059L54.4134 126.785L54.5159 127.254L53.2654 127.528L53.8017 129.982C53.8552 130.227 53.9561 130.401 54.1044 130.505C54.2568 130.603 54.4476 130.627 54.6769 130.577C54.7915 130.551 54.897 130.509 54.9932 130.45C55.0946 130.39 55.177 130.317 55.2404 130.232L55.5229 130.588Z" fill="#BBBBBB"></path><path d="M389.854 212.968L388.65 222.111L387.697 221.985L388.252 217.767L382.532 217.014L381.976 221.232L381.01 221.105L382.214 211.962L383.18 212.09L382.644 216.165L388.364 216.918L388.9 212.843L389.854 212.968Z" fill="#BBBBBB"></path><path d="M394.504 214.431L391.291 214.008L391.401 213.172L398.794 214.145L398.683 214.981L395.471 214.558L394.377 222.865L393.411 222.737L394.504 214.431Z" fill="#BBBBBB"></path><path d="M409.832 215.599L408.629 224.741L407.702 224.619L408.664 217.305L404.263 222.984L403.806 222.923L401.019 216.338L400.061 223.613L399.134 223.491L400.338 214.349L401.134 214.453L404.212 221.754L409.036 215.494L409.832 215.599Z" fill="#BBBBBB"></path><path d="M412.811 215.991L413.778 216.118L412.684 224.424L417.804 225.098L417.694 225.934L411.608 225.133L412.811 215.991Z" fill="#BBBBBB"></path><path d="M426.969 240.12L427.068 239.406L427.354 237.339C427.607 235.509 427.971 232.884 428.385 229.502C429.321 222.742 430.612 213.03 432.223 201.135L432.375 201.349L373.725 193.94L373.988 193.732L368.596 232.662L368.414 232.415L410.597 237.856L422.687 239.439L426.756 239.953L422.759 239.448L410.698 237.98L368.342 232.741L368.128 232.714L368.158 232.494L373.556 193.519L373.797 193.549L432.439 201.013L432.626 201.036L432.596 201.256C430.949 213.147 429.526 222.898 428.559 229.682C428.094 233.04 427.731 235.665 427.436 237.47L427.156 239.492C427.09 239.967 426.968 240.12 426.968 240.12L426.969 240.12Z" fill="#BBBBBB"></path><path d="M431.6 207.306C431.583 207.442 418.366 205.813 402.051 203.657C385.737 201.501 372.551 199.639 372.568 199.502C372.586 199.367 385.85 200.982 402.156 203.137C418.46 205.292 431.619 207.16 431.6 207.306L431.6 207.306Z" fill="#BBBBBB"></path><path d="M377.391 197.254C377.391 197.406 377.345 197.555 377.26 197.68C377.175 197.806 377.055 197.903 376.916 197.958C376.777 198.013 376.625 198.023 376.482 197.988C376.339 197.953 376.21 197.873 376.114 197.76C376.017 197.647 375.957 197.506 375.942 197.356C375.927 197.205 375.957 197.053 376.028 196.919C376.099 196.784 376.209 196.675 376.341 196.605C376.474 196.535 376.623 196.508 376.77 196.527C376.858 196.532 376.944 196.554 377.023 196.594C377.102 196.633 377.173 196.688 377.23 196.756C377.288 196.823 377.332 196.902 377.36 196.988C377.387 197.073 377.398 197.164 377.391 197.254V197.254Z" fill="#BBBBBB"></path><path d="M380.012 197.602C380.011 197.754 379.965 197.902 379.88 198.028C379.795 198.154 379.675 198.251 379.536 198.306C379.397 198.361 379.246 198.371 379.102 198.336C378.959 198.301 378.83 198.221 378.734 198.108C378.637 197.995 378.577 197.854 378.562 197.704C378.547 197.553 378.577 197.401 378.648 197.267C378.719 197.132 378.829 197.023 378.961 196.953C379.094 196.883 379.243 196.855 379.39 196.874C379.478 196.879 379.564 196.902 379.643 196.941C379.723 196.981 379.793 197.036 379.851 197.103C379.909 197.171 379.952 197.25 379.98 197.336C380.008 197.421 380.018 197.512 380.012 197.602V197.602Z" fill="#BBBBBB"></path><path d="M382.606 197.947C382.605 198.098 382.559 198.247 382.474 198.373C382.389 198.498 382.269 198.595 382.13 198.65C381.991 198.705 381.84 198.716 381.697 198.68C381.553 198.645 381.425 198.566 381.328 198.453C381.232 198.34 381.172 198.199 381.156 198.048C381.141 197.898 381.171 197.745 381.242 197.611C381.314 197.477 381.423 197.367 381.555 197.297C381.688 197.227 381.838 197.2 381.984 197.219C382.072 197.224 382.159 197.247 382.238 197.286C382.317 197.325 382.387 197.38 382.445 197.448C382.503 197.515 382.547 197.594 382.574 197.68C382.602 197.766 382.613 197.856 382.606 197.947Z" fill="#BBBBBB"></path><path d="M4.48804 421.86C4.48804 422.01 105.728 422.12 230.588 422.12C355.448 422.12 456.708 422 456.708 421.86C456.708 421.72 355.488 421.6 230.588 421.6C105.688 421.6 4.48804 421.72 4.48804 421.86Z" fill="#263238"></path><rect x="164.348" y="0.75" width="269.5" height="160.341" fill="#FAFAFA" stroke="#455A64" stroke-width="0.5"></rect><path d="M176.294 6.83917C176.297 7.62834 175.824 8.34171 175.096 8.6461C174.368 8.95049 173.528 8.78583 172.969 8.22902C172.41 7.67222 172.241 6.83315 172.543 6.10372C172.844 5.37429 173.555 4.89845 174.344 4.89844C175.418 4.89843 176.289 5.76596 176.294 6.83917Z" fill="#455A64"></path><path d="M184.091 6.83919C184.094 7.62913 183.621 8.34304 182.892 8.64692C182.162 8.95081 181.322 8.78458 180.763 8.22601C180.205 7.66744 180.039 6.82697 180.342 6.09782C180.646 5.36867 181.36 4.89501 182.15 4.89846C183.222 4.89846 184.091 5.76735 184.091 6.83919Z" fill="#455A64"></path><path d="M191.888 6.83918C191.891 7.62834 191.419 8.34171 190.69 8.6461C189.962 8.95049 189.123 8.78583 188.563 8.22903C188.004 7.67222 187.836 6.83316 188.137 6.10373C188.438 5.37431 189.149 4.89846 189.939 4.89846C190.455 4.89619 190.951 5.09966 191.316 5.46386C191.682 5.82807 191.888 6.32299 191.888 6.83918Z" fill="#455A64"></path><path d="M433.598 16.5942C433.598 16.742 373.362 16.8504 299.103 16.8504C224.844 16.8504 164.598 16.742 164.598 16.5942C164.598 16.4464 224.835 16.338 299.103 16.338C373.372 16.338 433.598 16.4563 433.598 16.5942Z" fill="#455A64"></path><rect x="187.989" y="94.5652" width="58.4783" height="3.89855" fill="#455A64"></rect><rect x="262.062" y="39.9856" width="58.4783" height="3.89855" fill="#455A64"></rect><path d="M410.207 55.5845C410.207 55.7225 377.039 55.8407 336.134 55.8407C295.23 55.8407 262.062 55.7225 262.062 55.5845C262.062 55.4466 295.22 55.3185 336.134 55.3185C377.049 55.3185 410.207 55.4367 410.207 55.5845Z" fill="#455A64"></path><path d="M410.207 67.2754C410.207 67.4133 377.039 67.5316 336.134 67.5316C295.23 67.5316 262.062 67.4133 262.062 67.2754C262.062 67.1374 295.22 67.0192 336.134 67.0192C377.049 67.0192 410.207 67.167 410.207 67.2754Z" fill="#455A64"></path><path d="M410.207 75.0725C410.207 75.2203 377.039 75.3287 336.134 75.3287C295.23 75.3287 262.062 75.2203 262.062 75.0725C262.062 74.9247 295.22 74.8163 336.134 74.8163C377.049 74.8163 410.207 74.9346 410.207 75.0725Z" fill="#455A64"></path><path d="M410.207 82.8746C410.207 83.0125 377.039 83.1307 336.134 83.1307C295.23 83.1307 262.062 83.0125 262.062 82.8746C262.062 82.7366 295.22 82.6085 336.134 82.6085C377.049 82.6085 410.207 82.7268 410.207 82.8746Z" fill="#455A64"></path><path d="M410.207 90.6667C410.207 90.8047 377.039 90.9229 336.134 90.9229C295.23 90.9229 262.062 90.8047 262.062 90.6667C262.062 90.5288 295.22 90.4106 336.134 90.4106C377.049 90.4106 410.207 90.5189 410.207 90.6667Z" fill="#455A64"></path><path d="M320.54 98.4639C320.54 98.6018 307.45 98.7201 291.306 98.7201C275.163 98.7201 262.062 98.6018 262.062 98.4639C262.062 98.3259 275.203 98.2077 291.306 98.2077C307.409 98.2077 320.54 98.3259 320.54 98.4639Z" fill="#455A64"></path><path d="M406.308 114.058C406.308 114.206 385.357 114.314 359.526 114.314C333.694 114.314 312.743 114.206 312.743 114.058C312.743 113.91 333.685 113.802 359.526 113.802C385.367 113.802 406.308 113.92 406.308 114.058Z" fill="#455A64"></path><path d="M406.308 121.855C406.308 121.993 385.357 122.111 359.526 122.111C333.694 122.111 312.743 121.993 312.743 121.855C312.743 121.717 333.685 121.599 359.526 121.599C385.367 121.599 406.308 121.717 406.308 121.855Z" fill="#455A64"></path><path d="M406.308 133.551C406.308 133.689 385.357 133.807 359.526 133.807C333.694 133.807 312.743 133.689 312.743 133.551C312.743 133.413 333.685 133.295 359.526 133.295C385.367 133.295 406.308 133.403 406.308 133.551Z" fill="#455A64"></path><path d="M406.308 145.246C406.308 145.384 385.357 145.503 359.526 145.503C333.694 145.503 312.743 145.384 312.743 145.246C312.743 145.108 333.685 144.99 359.526 144.99C385.367 144.99 406.308 145.099 406.308 145.246Z" fill="#455A64"></path><path d="M246.468 114.058C246.468 114.196 233.36 114.314 217.228 114.314C201.096 114.314 187.989 114.196 187.989 114.058C187.989 113.92 201.096 113.802 217.228 113.802C233.36 113.802 246.468 113.91 246.468 114.058Z" fill="#455A64"></path><path d="M246.468 121.855C246.468 122.003 233.36 122.111 217.228 122.111C201.096 122.111 187.989 122.003 187.989 121.855C187.989 121.707 201.096 121.599 217.228 121.599C233.36 121.599 246.468 121.678 246.468 121.855Z" fill="#455A64"></path><path d="M246.468 129.652C246.468 129.79 233.36 129.908 217.228 129.908C201.096 129.908 187.989 129.79 187.989 129.652C187.989 129.514 201.096 129.396 217.228 129.396C233.36 129.396 246.468 129.514 246.468 129.652Z" fill="#455A64"></path><path d="M246.468 137.449C246.468 137.597 233.36 137.705 217.228 137.705C201.096 137.705 187.989 137.597 187.989 137.449C187.989 137.301 201.096 137.193 217.228 137.193C233.36 137.193 246.468 137.311 246.468 137.449Z" fill="#455A64"></path><path d="M246.468 145.246C246.468 145.384 233.36 145.503 217.228 145.503C201.096 145.503 187.989 145.384 187.989 145.246C187.989 145.108 201.096 144.99 217.228 144.99C233.36 144.99 246.468 145.059 246.468 145.246Z" fill="#455A64"></path><rect x="187.989" y="28.2898" width="58.4783" height="58.4783" fill="#E0E0E0"></rect><path d="M187.989 82.8696L204.588 51.6812L218.155 71.617L226.409 61.0356L238.67 82.8696H187.989Z" fill="#007FFF"></path><path d="M223.076 47.7826C223.076 49.9357 221.331 51.6811 219.178 51.6811C217.025 51.6811 215.279 49.9357 215.279 47.7826C215.279 45.6295 217.025 43.884 219.178 43.884C221.331 43.884 223.076 45.6295 223.076 47.7826Z" fill="#007FFF"></path><path d="M242.192 78.856C242.187 78.7825 242.187 78.7088 242.192 78.6353C242.192 78.4627 242.192 78.2516 242.192 77.9831C242.192 77.3979 242.192 76.5634 242.192 75.489C242.192 73.2923 242.192 70.1172 242.122 66.0788C242.122 57.9827 242.053 46.4525 242.003 32.601L242.241 32.8408H192.097C192.027 32.8983 192.624 32.3228 192.375 32.5722V45.0424C192.375 49.1096 192.375 53.1001 192.375 56.9851C192.375 64.7454 192.375 72.0837 192.375 78.8368L192.127 78.6066L228.389 78.7217L238.624 78.7888H241.337H242.281C242.281 78.7888 242.212 78.7888 242.063 78.7888H241.387H238.724L228.548 78.856L192.127 78.9711H191.888V78.7313C191.888 72.0165 191.888 64.6399 191.888 56.8796C191.888 52.9946 191.888 49.0041 191.888 44.9369V32.4667L192.176 32.1885H242.321H242.569V32.4187C242.569 46.3278 242.47 57.906 242.44 66.0404C242.44 70.0597 242.44 73.2156 242.381 75.4027C242.381 76.4579 242.381 77.2732 242.381 77.8584C242.381 78.1174 242.381 78.3188 242.381 78.4723C242.381 78.6258 242.202 78.8656 242.192 78.856Z" fill="#455A64"></path><rect x="262.062" y="110.159" width="42.8841" height="38.9855" fill="#E0E0E0"></rect><path d="M262.062 149.145L273.545 129.652L282.945 142.113L288.652 135.489L297.149 149.145H262.062Z" fill="#007FFF"></path><path d="M289.352 123.804C289.352 124.881 288.479 125.754 287.402 125.754C286.326 125.754 285.453 124.881 285.453 123.804C285.453 122.728 286.326 121.855 287.402 121.855C288.479 121.855 289.352 122.728 289.352 123.804Z" fill="#007FFF"></path><path d="M296.935 145.219C296.932 145.168 296.932 145.117 296.935 145.065C296.935 144.957 296.935 144.812 296.935 144.631C296.935 144.242 296.935 143.727 296.935 142.967C296.935 141.502 296.935 139.349 296.887 136.681C296.887 131.255 296.887 123.585 296.809 114.351L296.974 114.505H262.29C262.29 114.505 262.659 114.161 262.484 114.333V130.613C262.484 135.795 262.484 140.688 262.484 145.201L262.31 145.038L287.39 145.12L294.459 145.165H296.333H294.488H287.458L262.271 145.246H262.106V145.093C262.106 140.57 262.106 135.686 262.106 130.504C262.106 127.917 262.106 125.249 262.106 122.536V114.251C261.931 114.405 262.339 114.016 262.3 114.062H296.984H297.149V114.215C297.149 123.495 297.081 131.219 297.062 136.654C297.062 139.367 297.062 141.439 297.062 142.895C297.062 143.6 297.062 144.143 297.062 144.532C297.062 144.704 297.062 144.839 297.062 144.948C297.039 145.045 296.996 145.137 296.935 145.219Z" fill="#455A64"></path><path d="M280.288 147.1H148.888C147.753 147.1 146.664 147.551 145.861 148.353C145.059 149.156 144.608 150.245 144.608 151.38V233.15C144.608 235.653 145.602 238.055 147.373 239.825C149.143 241.595 151.544 242.59 154.048 242.59H275.128C277.632 242.59 280.033 241.595 281.803 239.825C283.573 238.055 284.568 235.653 284.568 233.15V151.38C284.568 150.245 284.117 149.156 283.314 148.353C282.512 147.551 281.423 147.1 280.288 147.1Z" fill="#007FFF"></path><path d="M154.048 242.59H153.748C153.548 242.59 153.258 242.59 152.868 242.51C151.722 242.352 150.615 241.99 149.598 241.44C147.94 240.523 146.595 239.129 145.738 237.44C145.188 236.378 144.849 235.22 144.738 234.03C144.658 232.76 144.738 231.38 144.738 229.93C144.738 218.3 144.788 201.5 144.818 180.73C144.818 175.543 144.818 170.11 144.818 164.43C144.818 161.597 144.818 158.707 144.818 155.76V151.31C144.833 150.585 145.04 149.878 145.418 149.26C145.795 148.642 146.33 148.134 146.968 147.79C147.619 147.454 148.345 147.289 149.078 147.31H165.708H185.768H275.108H279.598C280.075 147.284 280.554 147.304 281.028 147.37C281.945 147.53 282.777 148.006 283.381 148.714C283.985 149.422 284.324 150.319 284.338 151.25C284.338 155.16 284.338 159.05 284.338 162.91V185.7C284.338 200.65 284.338 215.06 284.338 228.8C284.338 230.5 284.338 232.24 284.338 233.89C284.192 235.524 283.614 237.09 282.663 238.428C281.713 239.765 280.423 240.825 278.928 241.5C277.446 242.134 275.836 242.411 274.228 242.31H255.298H221.298L172.108 242.39H158.728H155.248H154.068H155.248H158.728L172.108 242.44L221.298 242.52H255.298H274.178C275.851 242.624 277.525 242.337 279.068 241.68C280.643 240.975 282.002 239.861 283.002 238.455C284.002 237.048 284.609 235.4 284.758 233.68C284.848 231.95 284.758 230.27 284.808 228.55C284.808 214.81 284.808 200.4 284.808 185.45C284.808 177.983 284.808 170.387 284.808 162.66C284.808 158.8 284.808 154.91 284.808 150.99C284.791 149.939 284.408 148.926 283.726 148.127C283.043 147.328 282.103 146.791 281.068 146.61C280.564 146.538 280.055 146.514 279.548 146.54H275.098H185.758H149.068C148.262 146.515 147.463 146.698 146.748 147.07C146.047 147.453 145.459 148.015 145.045 148.698C144.631 149.381 144.404 150.161 144.388 150.96V155.42C144.388 158.373 144.388 161.263 144.388 164.09C144.388 169.757 144.388 175.19 144.388 180.39C144.388 201.16 144.458 217.96 144.478 229.59C144.478 231.05 144.478 232.41 144.478 233.71C144.584 234.917 144.923 236.092 145.478 237.17C146.364 238.869 147.74 240.263 149.428 241.17C150.458 241.709 151.581 242.048 152.738 242.17C153.166 242.335 153.603 242.475 154.048 242.59Z" fill="#263238"></path><path d="M202.468 242.59H226.778C226.778 242.59 234.248 255.06 226.778 262.59H201.598C201.598 262.59 214.028 254.42 202.468 242.59Z" fill="#007FFF"></path><g opacity="0.3"><path opacity="0.3" d="M226.778 242.59L228.008 245.06L205.728 246.8C204.713 245.342 203.625 243.937 202.468 242.59H226.778Z" fill="black"></path></g><path d="M211.608 236.08C210.083 236.08 208.848 234.844 208.848 233.32C208.848 231.796 210.083 230.56 211.608 230.56C213.132 230.56 214.368 231.796 214.368 233.32C214.368 234.844 213.132 236.08 211.608 236.08Z" fill="#FAFAFA"></path><path d="M151.318 152.36H277.858V225.19H151.318V152.36Z" fill="#FAFAFA"></path><path d="M151.318 225.18C151.318 225.18 151.318 224.73 151.318 223.87C151.318 223.01 151.318 221.72 151.318 220.05C151.318 216.7 151.318 211.79 151.368 205.48C151.368 192.86 151.428 174.68 151.478 152.36L151.278 152.56L277.808 152.62L277.548 152.36C277.548 178.13 277.548 202.75 277.548 225.18L277.798 224.94L186.798 225.06L160.658 225.12H153.658H151.858H151.238H151.828H153.598H160.518L186.608 225.19L277.778 225.3H278.018V225.05C278.018 202.62 278.018 178 278.018 152.23V151.97H277.748L151.218 152.03H151.018V152.23C151.018 174.6 151.098 192.83 151.118 205.47C151.118 211.76 151.118 216.66 151.168 220C151.168 221.647 151.168 222.907 151.168 223.78C151.298 224.76 151.318 225.18 151.318 225.18Z" fill="#263238"></path><path d="M277.598 152.5H151.398V225H277.598V152.5Z" fill="#E0E0E0"></path><path d="M274.159 156.7H155.146V221H274.159V156.7Z" fill="#263238"></path><path d="M164.274 222.994C164.214 222.994 164.163 208.448 164.163 190.506C164.163 172.564 164.214 158.019 164.274 158.019C164.334 158.019 164.368 172.56 164.368 190.51C164.368 208.461 164.334 222.994 164.274 222.994Z" fill="#E0E0E0"></path><path d="M161.873 163.908C161.235 164.017 160.586 164.053 159.94 164.016C159.293 164.053 158.644 164.017 158.006 163.908C159.288 163.764 160.583 163.764 161.865 163.908H161.873Z" fill="#E0E0E0"></path><path d="M162.023 160.221C161.385 160.33 160.736 160.366 160.09 160.329C159.443 160.366 158.794 160.33 158.156 160.221C159.438 160.077 160.733 160.077 162.015 160.221H162.023Z" fill="#E0E0E0"></path><path d="M161.873 167.882C160.591 168.026 159.296 168.026 158.014 167.882C159.296 167.739 160.591 167.739 161.873 167.882Z" fill="#E0E0E0"></path><path d="M161.873 171.857C160.591 172.001 159.296 172.001 158.014 171.857C158.652 171.748 159.301 171.712 159.948 171.749C160.592 171.712 161.238 171.748 161.873 171.857Z" fill="#E0E0E0"></path><path d="M161.873 175.831C160.591 175.975 159.296 175.975 158.014 175.831C158.652 175.722 159.301 175.686 159.948 175.723C160.592 175.686 161.238 175.723 161.873 175.831Z" fill="#E0E0E0"></path><path d="M161.873 179.806C160.591 179.949 159.296 179.949 158.014 179.806C158.652 179.697 159.301 179.66 159.948 179.698C160.592 179.661 161.238 179.697 161.873 179.806Z" fill="#E0E0E0"></path><path d="M161.873 183.776C161.236 183.888 160.587 183.926 159.94 183.889C159.293 183.926 158.644 183.888 158.006 183.776C159.288 183.633 160.583 183.633 161.865 183.776H161.873Z" fill="#E0E0E0"></path><path d="M161.873 187.751C161.235 187.86 160.586 187.897 159.94 187.859C159.293 187.897 158.644 187.86 158.006 187.751C159.288 187.607 160.583 187.607 161.865 187.751H161.873Z" fill="#E0E0E0"></path><path d="M161.873 191.726C161.235 191.835 160.586 191.871 159.94 191.834C159.293 191.871 158.644 191.835 158.006 191.726C159.288 191.582 160.583 191.582 161.865 191.726H161.873Z" fill="#E0E0E0"></path><path d="M161.873 195.7C161.235 195.809 160.586 195.845 159.94 195.808C159.293 195.845 158.644 195.809 158.006 195.7C159.288 195.556 160.583 195.556 161.865 195.7H161.873Z" fill="#E0E0E0"></path><path d="M161.873 199.666C160.591 199.81 159.296 199.81 158.014 199.666C159.296 199.522 160.591 199.522 161.873 199.666Z" fill="#E0E0E0"></path><path d="M161.873 203.649C160.591 203.793 159.296 203.793 158.014 203.649C158.652 203.54 159.301 203.504 159.948 203.541C160.592 203.505 161.238 203.541 161.873 203.649Z" fill="#E0E0E0"></path><path d="M161.873 207.623C160.591 207.767 159.296 207.767 158.014 207.623C158.652 207.514 159.301 207.478 159.948 207.515C160.592 207.479 161.238 207.515 161.873 207.623Z" fill="#E0E0E0"></path><path d="M161.873 211.598C160.591 211.742 159.296 211.742 158.014 211.598C158.652 211.489 159.301 211.453 159.948 211.49C160.592 211.453 161.238 211.49 161.873 211.598Z" fill="#E0E0E0"></path><path d="M161.873 215.573C160.591 215.716 159.296 215.716 158.014 215.573C158.652 215.461 159.301 215.423 159.948 215.46C160.592 215.424 161.238 215.462 161.873 215.573Z" fill="#E0E0E0"></path><path d="M161.873 219.544C161.235 219.653 160.586 219.689 159.94 219.652C159.293 219.689 158.644 219.653 158.006 219.544C159.288 219.4 160.583 219.4 161.865 219.544H161.873Z" fill="#E0E0E0"></path><path d="M177.374 163.675C177.374 163.733 175.127 163.783 172.357 163.783C169.587 163.783 167.336 163.733 167.336 163.675C167.336 163.617 169.583 163.567 172.357 163.567C175.131 163.567 177.374 163.612 177.374 163.675Z" fill="#007FFF"></path><path d="M177.374 219.543C177.374 219.606 175.127 219.651 172.357 219.651C169.587 219.651 167.336 219.606 167.336 219.543C167.336 219.481 169.583 219.435 172.357 219.435C175.131 219.435 177.374 219.485 177.374 219.543Z" fill="#007FFF"></path><path d="M191.348 171.857C191.348 171.915 187.141 171.965 181.957 171.965C176.773 171.965 172.571 171.915 172.571 171.857C172.571 171.799 176.773 171.749 181.957 171.749C187.141 171.749 191.348 171.782 191.348 171.857Z" fill="#007FFF"></path><path d="M213.057 171.857C213.057 171.915 208.851 171.965 203.667 171.965C198.483 171.965 194.281 171.915 194.281 171.857C194.281 171.799 198.483 171.749 203.667 171.749C208.851 171.749 213.057 171.782 213.057 171.857Z" fill="#E0E0E0"></path><path d="M204.76 175.832C204.76 175.89 198.564 175.94 190.923 175.94C183.282 175.94 177.091 175.89 177.091 175.832C177.091 175.773 183.282 175.723 190.923 175.723C198.564 175.723 204.76 175.769 204.76 175.832Z" fill="#E0E0E0"></path><path d="M204.76 179.806C204.76 179.864 198.564 179.914 190.923 179.914C183.282 179.914 177.091 179.864 177.091 179.806C177.091 179.747 183.282 179.698 190.923 179.698C198.564 179.698 204.76 179.743 204.76 179.806Z" fill="#E0E0E0"></path><path d="M223.803 191.726C223.803 191.788 217.611 191.834 209.97 191.834C202.329 191.834 196.133 191.788 196.133 191.726C196.133 191.663 202.329 191.618 209.97 191.618C217.611 191.618 223.803 191.668 223.803 191.726Z" fill="#E0E0E0"></path><path d="M215.587 183.776C215.587 183.839 209.391 183.889 201.75 183.889C194.109 183.889 187.917 183.839 187.917 183.776C187.917 183.714 194.109 183.668 201.75 183.668C209.391 183.668 215.587 183.718 215.587 183.776Z" fill="#E0E0E0"></path><path d="M249.397 183.776C249.397 183.839 243.201 183.889 235.564 183.889C227.928 183.889 221.728 183.839 221.728 183.776C221.728 183.714 227.923 183.668 235.564 183.668C243.205 183.668 249.397 183.718 249.397 183.776Z" fill="#E0E0E0"></path><path d="M237.64 175.832C237.64 175.89 231.444 175.94 223.803 175.94C216.162 175.94 209.97 175.89 209.97 175.832C209.97 175.773 216.162 175.723 223.803 175.723C231.444 175.723 237.64 175.769 237.64 175.832Z" fill="#FAFAFA"></path><path d="M256.751 191.726C256.751 191.788 250.555 191.834 242.918 191.834C235.281 191.834 229.081 191.788 229.081 191.726C229.081 191.663 235.277 191.618 242.918 191.618C250.559 191.618 256.751 191.668 256.751 191.726Z" fill="#FAFAFA"></path><path d="M252.934 179.806C252.934 179.864 243.317 179.914 231.452 179.914C219.588 179.914 209.97 179.864 209.97 179.806C209.97 179.747 219.588 179.698 231.452 179.698C243.317 179.698 252.934 179.743 252.934 179.806Z" fill="#455A64"></path><path d="M177.374 167.882C177.374 167.94 175.127 167.99 172.357 167.99C169.587 167.99 167.336 167.94 167.336 167.882C167.336 167.824 169.583 167.774 172.357 167.774C175.131 167.774 177.374 167.824 177.374 167.882Z" fill="#FAFAFA"></path><path d="M177.374 215.573C177.374 215.631 175.127 215.681 172.357 215.681C169.587 215.681 167.336 215.631 167.336 215.573C167.336 215.514 169.583 215.46 172.357 215.46C175.131 215.46 177.374 215.51 177.374 215.573Z" fill="#FAFAFA"></path><path d="M182.343 183.776C182.343 183.839 180.096 183.889 177.326 183.889C174.556 183.889 172.31 183.839 172.31 183.776C172.31 183.714 174.552 183.668 177.326 183.668C180.101 183.668 182.343 183.718 182.343 183.776Z" fill="#FAFAFA"></path><path d="M262.766 183.776C262.766 183.839 260.519 183.889 257.749 183.889C254.979 183.889 252.732 183.839 252.732 183.776C252.732 183.714 254.975 183.668 257.749 183.668C260.523 183.668 262.766 183.718 262.766 183.776Z" fill="#007FFF"></path><path d="M191.348 199.666C191.348 199.729 187.141 199.775 181.957 199.775C176.773 199.775 172.571 199.729 172.571 199.666C172.571 199.604 176.773 199.558 181.957 199.558C187.141 199.558 191.348 199.591 191.348 199.666Z" fill="#007FFF"></path><path d="M213.057 199.666C213.057 199.729 208.851 199.775 203.667 199.775C198.483 199.775 194.281 199.729 194.281 199.666C194.281 199.604 198.483 199.558 203.667 199.558C208.851 199.558 213.057 199.591 213.057 199.666Z" fill="#E0E0E0"></path><path d="M204.76 203.624C204.76 203.687 198.564 203.733 190.923 203.733C183.282 203.733 177.091 203.687 177.091 203.624C177.091 203.562 183.282 203.516 190.923 203.516C198.564 203.516 204.76 203.566 204.76 203.624Z" fill="#E0E0E0"></path><path d="M204.76 207.599C204.76 207.661 198.564 207.707 190.923 207.707C183.282 207.707 177.091 207.661 177.091 207.599C177.091 207.536 183.282 207.49 190.923 207.49C198.564 207.49 204.76 207.54 204.76 207.599Z" fill="#E0E0E0"></path><path d="M215.587 211.573C215.587 211.632 209.391 211.682 201.75 211.682C194.109 211.682 187.917 211.632 187.917 211.573C187.917 211.515 194.109 211.465 201.75 211.465C209.391 211.465 215.587 211.515 215.587 211.573Z" fill="#E0E0E0"></path><path d="M249.397 211.573C249.397 211.632 243.201 211.682 235.564 211.682C227.928 211.682 221.728 211.632 221.728 211.573C221.728 211.515 227.923 211.465 235.564 211.465C243.205 211.465 249.397 211.515 249.397 211.573Z" fill="#E0E0E0"></path><path d="M237.64 203.624C237.64 203.687 231.444 203.733 223.803 203.733C216.162 203.733 209.97 203.687 209.97 203.624C209.97 203.562 216.162 203.516 223.803 203.516C231.444 203.516 237.64 203.566 237.64 203.624Z" fill="#FAFAFA"></path><path d="M252.934 207.599C252.934 207.661 243.317 207.707 231.452 207.707C219.588 207.707 209.97 207.661 209.97 207.599C209.97 207.536 219.588 207.49 231.452 207.49C243.317 207.49 252.934 207.54 252.934 207.599Z" fill="#455A64"></path><path d="M182.343 211.573C182.343 211.632 180.096 211.682 177.326 211.682C174.556 211.682 172.31 211.632 172.31 211.573C172.31 211.515 174.552 211.465 177.326 211.465C180.101 211.465 182.343 211.515 182.343 211.573Z" fill="#FAFAFA"></path><path d="M262.766 211.573C262.766 211.632 260.519 211.682 257.749 211.682C254.979 211.682 252.732 211.632 252.732 211.573C252.732 211.515 254.975 211.465 257.749 211.465C260.523 211.465 262.766 211.515 262.766 211.573Z" fill="#007FFF"></path><path d="M156.708 154.8C156.708 155.01 156.625 155.21 156.477 155.359C156.329 155.507 156.128 155.59 155.918 155.59C155.814 155.591 155.71 155.572 155.613 155.533C155.516 155.494 155.427 155.436 155.353 155.362C155.279 155.289 155.22 155.201 155.179 155.105C155.139 155.008 155.118 154.905 155.118 154.8C155.118 154.695 155.139 154.591 155.179 154.494C155.219 154.397 155.278 154.309 155.352 154.234C155.427 154.16 155.515 154.101 155.612 154.061C155.709 154.021 155.813 154 155.918 154C156.023 154 156.126 154.021 156.223 154.061C156.319 154.101 156.407 154.16 156.48 154.235C156.554 154.309 156.612 154.398 156.651 154.495C156.69 154.592 156.709 154.695 156.708 154.8Z" fill="#263238"></path><path d="M159.818 154.8C159.818 155.012 159.734 155.216 159.584 155.366C159.434 155.516 159.23 155.6 159.018 155.6C158.806 155.6 158.603 155.516 158.453 155.366C158.303 155.216 158.218 155.012 158.218 154.8C158.218 154.588 158.303 154.384 158.453 154.234C158.603 154.084 158.806 154 159.018 154C159.23 154 159.434 154.084 159.584 154.234C159.734 154.384 159.818 154.588 159.818 154.8Z" fill="#263238"></path><path d="M162.918 154.8C162.918 154.905 162.897 155.008 162.857 155.105C162.817 155.201 162.758 155.289 162.683 155.362C162.609 155.436 162.521 155.494 162.424 155.533C162.327 155.572 162.223 155.591 162.118 155.59C161.909 155.59 161.708 155.507 161.56 155.359C161.411 155.21 161.328 155.01 161.328 154.8C161.327 154.695 161.346 154.592 161.385 154.495C161.425 154.398 161.483 154.309 161.556 154.235C161.63 154.16 161.717 154.101 161.814 154.061C161.91 154.021 162.014 154 162.118 154C162.223 154 162.327 154.021 162.424 154.061C162.521 154.101 162.61 154.16 162.684 154.234C162.758 154.309 162.817 154.397 162.857 154.494C162.898 154.591 162.918 154.695 162.918 154.8Z" fill="#263238"></path><path d="M93.2578 421.86H100.778L117.548 271.24H107.688L93.2578 421.86Z" fill="#455A64"></path><path d="M140.808 421.86H148.328L165.228 271.24H155.358L140.808 421.86Z" fill="#455A64"></path><path d="M90.9478 271.24H295.088H356.028V262.54H90.9478V271.24Z" fill="#455A64"></path><path d="M301.008 421.86H293.488L277.358 271.24H287.228L301.008 421.86Z" fill="#263238"></path><path d="M365.528 421.86H358.008L341.118 271.24H350.988L365.528 421.86Z" fill="#263238"></path><path d="M274.358 262.54H356.028V271.24H274.358V262.54Z" fill="#263238"></path><path d="M180.558 259.94H236.958V262.54H180.558V259.94Z" fill="#263238"></path><path d="M116.528 387.59L111.198 416.9L147.598 423.72C148.038 420.2 130.508 409.72 130.508 409.72L134.688 391.09L116.528 387.59Z" fill="#007FFF"></path><g opacity="0.6"><path opacity="0.6" d="M119.598 406C119.228 406.039 118.885 406.214 118.636 406.491C118.387 406.768 118.249 407.127 118.248 407.5C118.276 407.871 118.445 408.218 118.72 408.469C118.996 408.72 119.356 408.856 119.728 408.85C120.12 408.803 120.481 408.615 120.743 408.32C121.004 408.025 121.149 407.644 121.148 407.25C121.082 406.863 120.867 406.518 120.549 406.288C120.232 406.058 119.836 405.962 119.448 406.02" fill="white"></path></g><g opacity="0.6"><path opacity="0.6" d="M111.198 416.9L111.848 413.96L146.528 421.6C146.528 421.6 148.018 422.6 147.618 423.72L111.198 416.9Z" fill="white"></path></g><path d="M131.148 409.61C131.148 409.79 130.208 409.7 129.218 410.11C128.228 410.52 127.638 411.18 127.488 411.11C127.338 411.04 127.788 410.04 128.988 409.56C130.188 409.08 131.218 409.45 131.148 409.61Z" fill="#263238"></path><path d="M134.678 411.9C134.678 412.08 133.858 412.24 133.108 412.9C132.358 413.56 132.038 414.3 131.868 414.26C131.698 414.22 131.768 413.2 132.708 412.42C133.648 411.64 134.698 411.73 134.678 411.9Z" fill="#263238"></path><path d="M135.988 416.88C135.818 416.88 135.738 415.96 136.378 415.07C137.018 414.18 137.918 413.95 137.968 414.07C138.018 414.19 137.398 414.66 136.888 415.39C136.378 416.12 136.168 416.9 135.988 416.88Z" fill="#263238"></path><path d="M131.598 405.26C131.498 405.4 130.728 405.01 129.708 404.89C128.688 404.77 127.848 404.94 127.788 404.77C127.728 404.6 128.588 404.1 129.788 404.26C130.988 404.42 131.748 405.13 131.598 405.26Z" fill="#263238"></path><path d="M131.598 400.77C130.968 400.823 130.335 400.702 129.768 400.42C129.134 400.178 128.529 399.862 127.968 399.48C127.638 399.248 127.324 398.994 127.028 398.72C126.845 398.569 126.686 398.39 126.558 398.19C126.454 398.038 126.407 397.855 126.426 397.672C126.444 397.489 126.526 397.318 126.658 397.19C126.77 397.084 126.905 397.005 127.053 396.96C127.2 396.915 127.356 396.905 127.508 396.93C127.74 396.973 127.966 397.047 128.178 397.15C128.548 397.319 128.903 397.52 129.238 397.75C129.801 398.145 130.3 398.624 130.718 399.17C131.408 400.11 131.578 400.83 131.508 400.86C131.438 400.89 131.108 400.27 130.368 399.46C129.94 398.992 129.452 398.582 128.918 398.24C128.6 398.038 128.266 397.864 127.918 397.72C127.548 397.54 127.228 397.48 127.088 397.63C126.948 397.78 127.038 397.72 127.088 397.84C127.18 397.987 127.295 398.118 127.428 398.23C127.718 398.5 128.008 398.75 128.288 398.97C128.804 399.352 129.352 399.687 129.928 399.97C130.501 400.202 131.059 400.469 131.598 400.77Z" fill="#263238"></path><path d="M131.298 401C131.048 400.416 130.996 399.767 131.148 399.15C131.237 398.468 131.447 397.808 131.768 397.2C131.959 396.846 132.183 396.511 132.438 396.2C132.582 395.977 132.781 395.796 133.016 395.673C133.251 395.55 133.513 395.491 133.778 395.5C133.939 395.533 134.088 395.612 134.205 395.727C134.322 395.843 134.403 395.989 134.438 396.15C134.494 396.379 134.517 396.615 134.508 396.85C134.492 397.269 134.414 397.683 134.278 398.08C134.048 398.745 133.656 399.343 133.138 399.82C132.258 400.63 131.468 400.7 131.468 400.64C131.468 400.58 132.108 400.31 132.828 399.51C133.24 399.046 133.544 398.496 133.718 397.9C133.827 397.557 133.884 397.2 133.888 396.84C133.888 396.44 133.818 396.1 133.668 396.12C133.518 396.14 133.118 396.31 132.918 396.59C132.68 396.875 132.466 397.179 132.278 397.5C131.966 398.049 131.731 398.637 131.578 399.25C131.328 400.27 131.398 401 131.298 401Z" fill="#263238"></path><path d="M158.988 392.31L153.258 421.55L189.598 428.85C190.078 425.34 172.688 414.59 172.688 414.59L177.118 396L158.988 392.31Z" fill="#007FFF"></path><g opacity="0.6"><path opacity="0.6" d="M161.768 410.76C161.398 410.794 161.053 410.965 160.8 411.238C160.547 411.511 160.404 411.868 160.398 412.24C160.419 412.612 160.582 412.962 160.854 413.217C161.126 413.473 161.486 413.613 161.858 413.61C162.258 413.574 162.629 413.388 162.896 413.089C163.164 412.79 163.308 412.401 163.298 412C163.239 411.614 163.031 411.268 162.719 411.034C162.406 410.8 162.015 410.698 161.628 410.75" fill="white"></path></g><g opacity="0.6"><path opacity="0.6" d="M153.258 421.55L153.958 418.62L188.528 426.72C188.528 426.72 190.008 427.72 189.598 428.85L153.258 421.55Z" fill="white"></path></g><path d="M173.308 414.52C173.308 414.7 172.368 414.6 171.378 415C170.388 415.4 169.778 416 169.628 415.94C169.478 415.88 169.948 414.87 171.158 414.41C172.368 413.95 173.378 414.37 173.308 414.52Z" fill="#263238"></path><path d="M176.808 416.87C176.808 417.05 175.978 417.19 175.228 417.82C174.478 418.45 174.138 419.21 173.968 419.17C173.798 419.13 173.878 418.1 174.828 417.33C175.778 416.56 176.838 416.7 176.808 416.87Z" fill="#263238"></path><path d="M178.048 421.86C177.888 421.86 177.818 420.93 178.468 420.05C179.118 419.17 180.028 418.95 180.068 419.12C180.108 419.29 179.498 419.69 178.978 420.43C178.458 421.17 178.228 421.88 178.048 421.86Z" fill="#263238"></path><path d="M173.848 410.18C173.748 410.32 172.978 409.92 171.968 409.78C170.958 409.64 170.098 409.78 170.038 409.64C169.978 409.5 170.858 408.99 172.038 409.16C173.218 409.33 173.968 410.06 173.848 410.18Z" fill="#263238"></path><path d="M173.858 405.69C173.229 405.742 172.598 405.613 172.038 405.32C171.404 405.059 170.803 404.723 170.248 404.32C169.922 404.087 169.611 403.833 169.318 403.56C169.138 403.404 168.983 403.222 168.858 403.02C168.756 402.867 168.711 402.684 168.729 402.502C168.747 402.319 168.828 402.149 168.958 402.02C169.072 401.914 169.21 401.837 169.359 401.793C169.508 401.75 169.665 401.742 169.818 401.77C170.052 401.811 170.278 401.889 170.488 402C170.854 402.175 171.205 402.379 171.538 402.61C172.094 403.014 172.586 403.5 172.998 404.05C173.678 405 173.838 405.72 173.768 405.75C173.698 405.78 173.378 405.15 172.648 404.33C172.222 403.858 171.738 403.442 171.208 403.09C170.888 402.89 170.553 402.713 170.208 402.56C169.848 402.38 169.518 402.31 169.388 402.47C169.258 402.63 169.328 402.55 169.388 402.68C169.48 402.827 169.595 402.959 169.728 403.07C169.994 403.336 170.278 403.583 170.578 403.81C171.084 404.195 171.627 404.53 172.198 404.81C172.77 405.068 173.324 405.362 173.858 405.69Z" fill="#263238"></path><path d="M173.598 405.9C173.364 405.311 173.322 404.664 173.478 404.05C173.579 403.367 173.799 402.707 174.128 402.1C174.322 401.745 174.549 401.41 174.808 401.1C174.957 400.881 175.159 400.703 175.395 400.584C175.631 400.465 175.894 400.409 176.158 400.42C176.319 400.458 176.465 400.54 176.582 400.656C176.698 400.773 176.78 400.92 176.818 401.08C176.868 401.31 176.885 401.545 176.868 401.78C176.843 402.198 176.752 402.61 176.598 403C176.364 403.66 175.968 404.251 175.448 404.72C174.548 405.52 173.768 405.58 173.758 405.52C173.748 405.46 174.408 405.2 175.128 404.41C175.548 403.95 175.862 403.404 176.048 402.81C176.16 402.467 176.221 402.11 176.228 401.75C176.228 401.36 176.168 401.02 176.018 401.03C175.868 401.04 175.468 401.22 175.258 401.49C175.017 401.771 174.799 402.072 174.608 402.39C174.291 402.935 174.049 403.52 173.888 404.13C173.598 405.19 173.678 405.89 173.598 405.9Z" fill="#263238"></path><path d="M137.788 398.16L151.908 319.5C152.602 315.616 152.257 311.618 150.908 307.91C149.349 303.553 146.482 299.783 142.701 297.114C138.919 294.446 134.407 293.009 129.778 293H79.9384L47.3784 307.43C47.3768 310.214 47.9513 312.969 49.0658 315.52C50.1804 318.071 51.8108 320.365 53.8546 322.255C55.8984 324.146 58.3114 325.593 60.9417 326.506C63.572 327.419 66.3627 327.778 69.1384 327.56L122.318 323.39L114.658 394.64L137.788 398.16Z" fill="#263238"></path><path d="M179.008 402.32L195.128 319.5C195.816 315.616 195.471 311.619 194.128 307.91C192.568 303.553 189.702 299.783 185.921 297.114C182.139 294.446 177.626 293.009 172.998 293H123.158L90.5982 307.46V329.3L165.548 323.42L155.738 397.02L179.008 402.32Z" fill="#263238"></path><path d="M155.728 397C155.728 397 155.798 396.7 155.898 396.12C155.998 395.54 156.118 394.64 156.278 393.57C156.608 391.32 157.058 388.13 157.618 384.21C158.698 376.21 160.178 365.35 161.818 353.3C163.328 341.73 164.708 331.21 165.728 323.42L165.648 323.56C169.218 321.1 171.928 318.9 173.878 317.47L176.108 315.81C176.384 315.635 176.645 315.437 176.888 315.22L176.668 315.34L176.048 315.72C175.518 316.07 174.738 316.6 173.758 317.3C171.758 318.68 169.008 320.84 165.438 323.24L165.368 323.29V323.37C164.318 331.16 162.888 341.67 161.318 353.24C159.738 365.29 158.318 376.24 157.268 384.17C156.778 388.09 156.378 391.28 156.098 393.55C155.978 394.62 155.878 395.47 155.808 396.1C155.755 396.397 155.728 396.698 155.728 397Z" fill="#455A64"></path><path d="M202.908 260.12L199.378 253.5C199.174 253.195 198.895 252.948 198.567 252.783C198.24 252.618 197.875 252.541 197.508 252.56L195.928 252.63L193.238 250.12H190.098L187.678 248.51L178.358 250.3L170.678 252.36L175.048 261L179.428 260.08L186.788 259.95C188.915 259.912 190.946 259.056 192.458 257.56C193.769 256.275 195.533 255.557 197.368 255.56C197.368 255.56 199.678 260.75 202.908 260.12Z" fill="#FFBE9D"></path><path d="M96.5981 160.38L96.4481 208.27L116.998 209.27L117.598 197.6C117.598 197.6 124.898 199.05 126.778 192.27C127.978 187.94 127.678 154.49 127.678 154.49L96.5981 160.38Z" fill="#FFBE9D"></path><path d="M96.2882 197.88C94.0983 195.61 93.0883 192.45 92.5783 189.34C92.0683 186.23 91.9883 183.05 91.2983 179.97C90.5883 176.73 89.2182 173.67 88.5282 170.43C87.8382 167.19 87.8882 163.57 89.8082 160.87C89.8082 160.87 91.0782 157.16 96.4982 156.87C96.4982 156.87 101.108 149.41 107.918 150.06C117.168 150.94 117.418 148.22 123.798 147.22C124.55 147.039 125.329 147.008 126.092 147.131C126.856 147.253 127.587 147.525 128.244 147.931C128.902 148.337 129.472 148.87 129.922 149.498C130.373 150.126 130.694 150.837 130.868 151.59C130.868 151.59 134.138 154.02 134.288 157.53V157.62C134.338 159.355 133.826 161.059 132.83 162.481C131.834 163.902 130.406 164.964 128.758 165.51L127.528 165.92C126.333 166.204 125.221 166.762 124.278 167.55C122.988 168.84 122.778 170.84 122.848 172.66C122.918 174.48 123.168 176.36 122.558 178.07C122.348 178.65 121.848 179.29 121.248 179.13C120.648 178.97 120.568 177.95 120.498 177.21C120.288 175.07 117.498 173.44 115.598 175.01C114.999 175.462 114.573 176.105 114.391 176.833C114.209 177.561 114.282 178.329 114.598 179.01C115.318 180.51 116.888 181.69 117.188 183.37C117.698 186.18 114.398 188.64 113.138 190.17C112.708 190.722 112.226 191.231 111.698 191.69C108.968 193.98 106.298 197.16 102.698 198.4C100.298 199.23 97.3683 199.02 95.5483 197.25" fill="#263238"></path><path d="M120.598 206.93C125.128 210.17 123.268 218.85 123.328 223.4C123.458 233.56 122.498 243.1 121.968 244.69C121.188 247.03 118.368 266.89 118.368 266.89L123.158 293C123.158 293 117.038 308.61 90.588 308.46L77.408 305.31C74.2205 304.548 71.4124 302.668 69.4945 300.01C67.5767 297.353 66.6766 294.095 66.958 290.83L69.958 255.72L73.958 227.23C74.958 212.28 84.368 204.32 96.338 205.17L120.598 206.93Z" fill="#007FFF"></path><g opacity="0.5"><path opacity="0.5" d="M109.788 305.07C112.688 303.57 108.788 274.34 105.418 259.37C104.098 253.53 102.348 247.5 98.1984 243.18C94.7939 239.88 90.5028 237.643 85.8484 236.74C81.5551 235.858 77.1812 235.429 72.7984 235.46L68.6584 302C68.6584 302 97.3384 311.55 109.788 305.07Z" fill="black"></path></g><path d="M120.598 206.93C123.372 207.463 125.982 208.642 128.216 210.37C130.45 212.099 132.246 214.329 133.458 216.88C136.788 223.79 151.358 252.56 151.358 252.56L173.628 251.08L178.078 261.24L147.598 269.43C141.298 270.64 135.798 266.8 132.698 261.12L119.898 237.7L120.598 206.93Z" fill="#007FFF"></path><path d="M118.418 206.93C118.418 206.93 118.978 201.84 118.248 200.93C117.518 200.02 95.4183 200.2 95.4183 200.2L94.2483 206.04L96.7083 210.4L117.708 212.23L118.418 206.93Z" fill="#007FFF"></path><path d="M148.758 257.58C150.113 256.387 150.946 254.71 151.078 252.91C150.291 254.46 149.518 256.017 148.758 257.58Z" fill="#263238"></path><path d="M116.848 229.75C117.784 232.444 118.882 235.079 120.138 237.64C121.243 240.272 122.502 242.836 123.908 245.32C122.973 242.625 121.874 239.99 120.618 237.43C119.518 234.796 118.259 232.231 116.848 229.75Z" fill="#263238"></path><path d="M94.4382 205.15C94.4382 205.15 94.3082 205.37 94.3082 205.85C94.3105 206.205 94.4249 206.549 94.635 206.835C94.8452 207.12 95.1403 207.332 95.4782 207.44C97.7882 207.58 101.478 207.75 105.708 207.9C109.268 208.03 112.468 208.12 114.838 208.15C115.781 208.159 116.713 207.957 117.568 207.56C118.168 207.24 118.398 206.94 118.378 206.92C118.358 206.9 118.078 207.13 117.488 207.37C116.638 207.683 115.733 207.822 114.828 207.78C112.528 207.65 109.288 207.51 105.728 207.38C101.528 207.23 97.7982 207.14 95.4782 207.12C95.1876 207.035 94.9292 206.865 94.7367 206.631C94.5441 206.397 94.4261 206.111 94.3982 205.81C94.4282 205.4 94.4782 205.15 94.4382 205.15Z" fill="#263238"></path><path d="M131.218 213.34C131.088 213.4 135.468 222.11 140.998 232.79C146.528 243.47 151.108 252.08 151.238 252C151.368 251.92 146.988 243.22 141.458 232.54C135.928 221.86 131.348 213.27 131.218 213.34Z" fill="#263238"></path><path d="M122.838 219.74C122.838 219.74 122.648 219.68 122.328 219.82C122.094 219.915 121.884 220.06 121.711 220.245C121.538 220.43 121.408 220.65 121.328 220.89C121.23 221.257 121.246 221.645 121.374 222.003C121.503 222.36 121.738 222.67 122.048 222.89C122.419 223.15 122.866 223.277 123.318 223.25C123.758 223.25 124.188 223.17 124.608 223.14C124.976 223.102 125.348 223.149 125.694 223.278C126.041 223.406 126.354 223.612 126.608 223.88C126.823 224.101 126.992 224.362 127.105 224.649C127.218 224.936 127.274 225.242 127.268 225.55C127.217 226.144 127.04 226.72 126.748 227.24C126.748 227.3 127.498 226.83 127.638 225.57C127.668 225.208 127.622 224.843 127.505 224.499C127.388 224.155 127.202 223.839 126.958 223.57C126.656 223.236 126.28 222.978 125.859 222.816C125.439 222.654 124.986 222.594 124.538 222.64C123.638 222.73 122.828 222.91 122.288 222.52C122.045 222.355 121.855 222.122 121.743 221.85C121.631 221.578 121.602 221.279 121.658 220.99C121.755 220.579 122.006 220.221 122.358 219.99C122.678 219.82 122.848 219.78 122.838 219.74Z" fill="#FAFAFA"></path><path d="M93.3182 220.06C93.3182 220.06 93.1182 220.01 92.7982 220.14C92.5738 220.245 92.3735 220.394 92.21 220.58C92.0465 220.766 91.9233 220.984 91.8482 221.22C91.7485 221.586 91.7631 221.974 91.89 222.331C92.0169 222.689 92.2501 222.999 92.5582 223.22C92.9345 223.468 93.378 223.593 93.8282 223.58C94.2782 223.58 94.6982 223.49 95.1182 223.46C95.4867 223.424 95.8587 223.472 96.2055 223.602C96.5522 223.732 96.8645 223.94 97.1182 224.21C97.3328 224.431 97.5015 224.693 97.6148 224.979C97.7281 225.266 97.7836 225.572 97.7782 225.88C97.7331 226.475 97.5555 227.053 97.2582 227.57C97.2582 227.62 98.0082 227.15 98.1482 225.9C98.177 225.539 98.1326 225.175 98.0174 224.832C97.9023 224.488 97.7189 224.171 97.4782 223.9C97.1756 223.563 96.7978 223.303 96.3756 223.139C95.9534 222.976 95.4987 222.915 95.0482 222.96C94.1482 223.05 93.3482 223.23 92.7982 222.84C92.5556 222.676 92.3664 222.445 92.2544 222.175C92.1424 221.905 92.1124 221.607 92.1682 221.32C92.2715 220.912 92.5205 220.557 92.8682 220.32C93.1482 220.15 93.3282 220.1 93.3182 220.06Z" fill="#FAFAFA"></path><path d="M93.6783 241.41C93.6783 241.41 93.6783 241.62 93.8783 241.9C94.0314 242.094 94.2235 242.254 94.4423 242.369C94.661 242.485 94.9015 242.553 95.1483 242.57C95.5316 242.58 95.909 242.473 96.2292 242.262C96.5493 242.051 96.7969 241.746 96.9383 241.39C97.0831 240.962 97.0831 240.498 96.9383 240.07C96.8283 239.64 96.6483 239.24 96.5183 238.85C96.3924 238.495 96.3486 238.116 96.3902 237.742C96.4317 237.368 96.5576 237.008 96.7583 236.69C97.1007 236.179 97.6275 235.821 98.2283 235.69C98.8158 235.595 99.4171 235.633 99.9883 235.8C99.7456 235.577 99.4515 235.417 99.1323 235.335C98.813 235.253 98.4784 235.251 98.1583 235.33C97.7953 235.384 97.4477 235.513 97.1377 235.709C96.8277 235.906 96.5622 236.165 96.3583 236.47C96.1033 236.843 95.9404 237.272 95.883 237.72C95.8256 238.169 95.8754 238.624 96.0283 239.05C96.3283 239.9 96.6983 240.64 96.4483 241.26C96.35 241.539 96.1713 241.783 95.9346 241.961C95.698 242.139 95.4139 242.243 95.1183 242.26C94.7001 242.258 94.2975 242.101 93.9883 241.82C93.7983 241.56 93.7083 241.4 93.6783 241.41Z" fill="#FAFAFA"></path><path d="M106.598 271.7C106.598 271.7 106.598 271.91 106.798 272.18C106.953 272.375 107.147 272.535 107.367 272.651C107.588 272.766 107.83 272.834 108.078 272.85C108.46 272.861 108.837 272.755 109.157 272.546C109.477 272.337 109.725 272.035 109.868 271.68C110.008 271.248 110.008 270.782 109.868 270.35C109.758 269.92 109.578 269.53 109.448 269.13C109.317 268.778 109.271 268.4 109.312 268.026C109.354 267.653 109.483 267.295 109.688 266.98C109.853 266.725 110.068 266.506 110.318 266.334C110.569 266.162 110.851 266.042 111.148 265.98C111.735 265.882 112.336 265.916 112.908 266.08C112.968 266.08 112.338 265.45 111.078 265.62C110.717 265.675 110.371 265.804 110.061 265.998C109.751 266.193 109.485 266.448 109.278 266.75C109.026 267.125 108.865 267.553 108.808 268.001C108.75 268.449 108.799 268.904 108.948 269.33C109.258 270.19 109.628 270.92 109.378 271.54C109.282 271.821 109.104 272.066 108.867 272.245C108.63 272.423 108.345 272.526 108.048 272.54C107.626 272.543 107.219 272.385 106.908 272.1C106.748 271.84 106.658 271.68 106.598 271.7Z" fill="#FAFAFA"></path><path d="M80.0881 227.4C80.0881 227.4 79.8881 227.4 79.5681 227.48C79.3337 227.578 79.1231 227.725 78.9506 227.911C78.778 228.097 78.6476 228.319 78.5681 228.56C78.4684 228.926 78.483 229.314 78.6099 229.671C78.7368 230.029 78.97 230.339 79.2781 230.56C79.6533 230.809 80.0983 230.932 80.5481 230.91C80.9981 230.91 81.4281 230.83 81.8381 230.8C82.2058 230.764 82.5768 230.812 82.9233 230.94C83.2697 231.068 83.5825 231.273 83.8381 231.54C84.0539 231.762 84.2233 232.025 84.3366 232.314C84.4499 232.602 84.5048 232.91 84.4981 233.22C84.4564 233.812 84.2784 234.387 83.9781 234.9C83.9781 234.96 84.7281 234.49 84.8681 233.24C84.8975 232.879 84.8533 232.515 84.7381 232.171C84.623 231.827 84.4393 231.511 84.1981 231.24C83.8955 230.903 83.5177 230.643 83.0955 230.479C82.6733 230.316 82.2186 230.255 81.7681 230.3C80.8681 230.39 80.0681 230.57 79.5281 230.18C79.2836 230.018 79.0925 229.787 78.9787 229.517C78.8648 229.246 78.8333 228.948 78.8881 228.66C78.9914 228.252 79.2404 227.896 79.5881 227.66C79.9181 227.49 80.0981 227.44 80.0881 227.4Z" fill="#FAFAFA"></path><path d="M110.918 254.23C110.918 254.23 111.068 254.09 111.118 253.74C111.149 253.495 111.127 253.246 111.055 253.01C110.983 252.774 110.861 252.556 110.698 252.37C110.437 252.089 110.094 251.895 109.718 251.817C109.342 251.738 108.951 251.777 108.598 251.93C108.175 252.112 107.823 252.428 107.598 252.83C107.368 253.22 107.218 253.62 107.028 254C106.866 254.339 106.628 254.637 106.334 254.871C106.039 255.105 105.696 255.269 105.328 255.35C104.728 255.467 104.106 255.341 103.598 255C103.115 254.652 102.715 254.202 102.428 253.68C102.378 253.68 102.428 254.53 103.428 255.31C103.723 255.526 104.059 255.679 104.415 255.76C104.771 255.84 105.139 255.847 105.498 255.78C105.942 255.695 106.36 255.507 106.718 255.231C107.076 254.955 107.364 254.598 107.558 254.19C107.948 253.37 108.208 252.59 108.828 252.33C109.094 252.207 109.391 252.164 109.681 252.209C109.971 252.253 110.241 252.382 110.458 252.58C110.753 252.881 110.927 253.279 110.948 253.7C110.938 254 110.878 254.21 110.918 254.23Z" fill="#FAFAFA"></path><path d="M109.468 234.16C109.468 234.16 109.268 234.1 108.958 234.24C108.723 234.334 108.512 234.479 108.339 234.664C108.166 234.849 108.036 235.069 107.958 235.31C107.858 235.676 107.873 236.063 108 236.421C108.127 236.778 108.36 237.089 108.668 237.31C109.046 237.562 109.494 237.688 109.948 237.67C110.388 237.67 110.818 237.58 111.228 237.55C111.596 237.517 111.967 237.568 112.313 237.697C112.659 237.827 112.972 238.033 113.228 238.3C113.443 238.521 113.611 238.782 113.725 239.069C113.838 239.356 113.893 239.662 113.888 239.97C113.837 240.565 113.656 241.142 113.358 241.66C113.358 241.71 114.108 241.25 114.248 239.99C114.282 239.628 114.239 239.263 114.124 238.919C114.009 238.575 113.823 238.258 113.578 237.99C113.277 237.654 112.901 237.394 112.48 237.233C112.06 237.071 111.606 237.012 111.158 237.06C110.248 237.15 109.448 237.33 108.908 236.94C108.663 236.776 108.472 236.544 108.359 236.271C108.247 235.998 108.219 235.699 108.278 235.41C108.377 235.003 108.623 234.647 108.968 234.41C109.298 234.24 109.478 234.2 109.468 234.16Z" fill="#FAFAFA"></path><path d="M110.068 281.65C110.068 281.65 109.868 281.65 109.558 281.73C109.325 281.829 109.115 281.977 108.943 282.163C108.77 282.349 108.639 282.57 108.558 282.81C108.458 283.176 108.473 283.564 108.6 283.921C108.727 284.279 108.96 284.589 109.268 284.81C109.648 285.058 110.095 285.184 110.548 285.17C110.988 285.17 111.418 285.08 111.838 285.05C112.206 285.014 112.578 285.063 112.925 285.193C113.271 285.323 113.584 285.531 113.838 285.8C114.054 286.02 114.224 286.281 114.337 286.568C114.45 286.855 114.505 287.162 114.498 287.47C114.445 288.06 114.268 288.633 113.978 289.15C113.978 289.21 114.718 288.74 114.868 287.49C114.898 287.128 114.853 286.763 114.736 286.419C114.619 286.075 114.432 285.759 114.188 285.49C113.887 285.153 113.511 284.893 113.091 284.729C112.67 284.566 112.217 284.505 111.768 284.55C110.868 284.64 110.058 284.82 109.518 284.43C109.273 284.268 109.083 284.037 108.97 283.766C108.858 283.495 108.829 283.197 108.888 282.91C108.984 282.502 109.231 282.145 109.578 281.91C109.898 281.74 110.078 281.69 110.068 281.65Z" fill="#FAFAFA"></path><path d="M138.358 256.34C138.358 256.34 138.158 256.28 137.838 256.42C137.612 256.522 137.41 256.671 137.246 256.857C137.082 257.043 136.96 257.263 136.888 257.5C136.784 257.866 136.796 258.255 136.924 258.613C137.051 258.972 137.287 259.282 137.598 259.5C137.969 259.76 138.416 259.887 138.868 259.86C139.318 259.86 139.738 259.78 140.158 259.75C140.526 259.714 140.897 259.762 141.243 259.89C141.59 260.018 141.903 260.223 142.158 260.49C142.374 260.712 142.543 260.975 142.657 261.264C142.77 261.552 142.825 261.86 142.818 262.17C142.772 262.762 142.594 263.335 142.298 263.85C142.298 263.91 143.048 263.44 143.188 262.18C143.219 261.818 143.175 261.453 143.058 261.109C142.941 260.764 142.754 260.448 142.508 260.18C142.208 259.843 141.832 259.582 141.411 259.418C140.991 259.255 140.537 259.194 140.088 259.24C139.188 259.33 138.378 259.51 137.838 259.12C137.594 258.956 137.403 258.723 137.291 258.45C137.179 258.178 137.15 257.879 137.208 257.59C137.305 257.179 137.556 256.822 137.908 256.59C138.188 256.43 138.358 256.38 138.358 256.34Z" fill="#FAFAFA"></path><path d="M130.808 242.51C130.808 242.51 130.808 242.71 130.938 243.02C131.061 243.235 131.228 243.422 131.428 243.568C131.628 243.714 131.856 243.817 132.098 243.87C132.474 243.939 132.862 243.89 133.209 243.731C133.556 243.572 133.845 243.31 134.038 242.98C134.256 242.584 134.34 242.128 134.278 241.68C134.278 241.23 134.118 240.82 134.048 240.4C133.976 240.032 133.989 239.652 134.086 239.29C134.183 238.928 134.362 238.593 134.608 238.31C134.81 238.076 135.056 237.883 135.333 237.744C135.609 237.605 135.91 237.522 136.218 237.5C136.811 237.5 137.398 237.626 137.938 237.87C137.998 237.87 137.468 237.16 136.198 237.14C135.824 237.132 135.452 237.204 135.107 237.351C134.762 237.497 134.453 237.715 134.198 237.99C133.892 238.322 133.669 238.721 133.545 239.155C133.422 239.59 133.402 240.047 133.488 240.49C133.658 241.38 133.908 242.16 133.578 242.74C133.436 242.999 133.221 243.21 132.959 243.347C132.698 243.484 132.402 243.54 132.108 243.51C131.696 243.441 131.323 243.224 131.058 242.9C130.908 242.67 130.848 242.5 130.808 242.51Z" fill="#FAFAFA"></path><path d="M109.198 217.24C109.198 217.24 109.198 217.44 109.318 217.74C109.441 217.956 109.607 218.145 109.807 218.293C110.007 218.441 110.235 218.546 110.478 218.6C110.856 218.668 111.246 218.619 111.595 218.458C111.944 218.297 112.235 218.032 112.428 217.7C112.647 217.304 112.731 216.848 112.668 216.4C112.668 215.96 112.508 215.54 112.438 215.13C112.363 214.763 112.374 214.383 112.469 214.021C112.564 213.658 112.742 213.323 112.988 213.04C113.399 212.57 113.976 212.28 114.598 212.23C115.195 212.223 115.786 212.349 116.328 212.6C116.122 212.343 115.855 212.14 115.551 212.011C115.247 211.882 114.917 211.83 114.588 211.86C114.221 211.86 113.858 211.936 113.522 212.084C113.187 212.233 112.886 212.449 112.638 212.72C112.33 213.051 112.105 213.45 111.98 213.884C111.855 214.318 111.834 214.776 111.918 215.22C112.098 216.1 112.348 216.89 112.008 217.46C111.87 217.72 111.657 217.932 111.396 218.069C111.136 218.207 110.841 218.263 110.548 218.23C110.133 218.168 109.755 217.954 109.488 217.63C109.298 217.39 109.238 217.22 109.198 217.24Z" fill="#FAFAFA"></path><path d="M80.218 215.52C80.218 215.52 80.2181 215.72 80.3481 216.03C80.4712 216.245 80.638 216.432 80.8378 216.578C81.0376 216.724 81.266 216.827 81.5081 216.88C81.8837 216.95 82.272 216.902 82.6194 216.743C82.9667 216.584 83.2562 216.32 83.4481 215.99C83.6666 215.594 83.7508 215.138 83.6881 214.69C83.6881 214.24 83.528 213.83 83.458 213.41C83.3859 213.042 83.3989 212.662 83.4959 212.3C83.593 211.938 83.7716 211.603 84.0181 211.32C84.4234 210.849 84.9986 210.558 85.618 210.51C86.2144 210.509 86.8041 210.635 87.3481 210.88C87.4081 210.88 86.8681 210.17 85.6081 210.15C85.2419 210.149 84.8793 210.223 84.5436 210.37C84.2079 210.516 83.9064 210.731 83.6581 211C83.35 211.331 83.1249 211.73 83.0015 212.164C82.878 212.599 82.8597 213.057 82.9481 213.5C83.1181 214.39 83.368 215.17 83.028 215.75C82.8887 216.009 82.6754 216.22 82.4154 216.357C82.1554 216.494 81.8604 216.551 81.5681 216.52C81.1532 216.457 80.7778 216.239 80.5181 215.91C80.3181 215.68 80.258 215.51 80.218 215.52Z" fill="#FAFAFA"></path><path d="M156.458 260C156.458 260 156.458 260.2 156.588 260.51C156.71 260.724 156.876 260.91 157.074 261.056C157.272 261.203 157.498 261.306 157.738 261.36C158.115 261.431 158.505 261.383 158.854 261.224C159.204 261.065 159.495 260.801 159.688 260.47C159.907 260.074 159.991 259.618 159.928 259.17C159.928 258.72 159.768 258.31 159.698 257.89C159.624 257.522 159.636 257.142 159.733 256.779C159.83 256.417 160.01 256.081 160.258 255.8C160.664 255.329 161.239 255.038 161.858 254.99C162.455 254.989 163.044 255.115 163.588 255.36C163.648 255.36 163.108 254.65 161.848 254.63C161.482 254.627 161.119 254.702 160.783 254.848C160.447 254.995 160.146 255.21 159.898 255.48C159.59 255.811 159.365 256.21 159.242 256.644C159.118 257.079 159.1 257.537 159.188 257.98C159.358 258.87 159.608 259.65 159.268 260.23C159.128 260.488 158.914 260.699 158.655 260.836C158.395 260.973 158.1 261.03 157.808 261C157.392 260.935 157.014 260.718 156.748 260.39C156.598 260.11 156.498 259.94 156.458 260Z" fill="#FAFAFA"></path><path d="M110.018 333.92L110.808 421.86H105.808L105.428 335.67C105.428 335.67 105.178 331.73 102.178 331.47C99.1781 331.21 54.1781 333.47 54.1781 333.47L40.9181 421.86H35.1581L48.1581 333.48C48.1581 333.48 85.9481 320.7 104.728 324.64C104.728 324.64 109.238 323.81 109.488 327.27C109.738 330.73 110.018 333.92 110.018 333.92Z" fill="#E0E0E0"></path><path d="M109.138 323.76C109.138 323.76 101.318 262.76 98.508 252.42C97.1672 247.743 94.0573 243.772 89.838 241.35C87.4503 239.905 84.6979 239.176 81.908 239.25L40.398 240.16C39.502 240.178 38.6204 240.389 37.8127 240.777C37.005 241.166 36.2899 241.723 35.7156 242.411C35.1413 243.099 34.7212 243.902 34.4836 244.766C34.2459 245.63 34.1963 246.535 34.338 247.42L48.098 333.48C63.368 333.48 99.098 333.48 99.098 333.48C99.098 333.48 147.988 328.15 155.498 327.82C160.188 327.61 160.498 329.42 160.938 331.38C165.338 327.82 162.708 320.49 157.058 320.84L109.138 323.76Z" fill="#455A64"></path><path d="M34.5983 244.34C34.7146 244.353 34.832 244.353 34.9483 244.34H35.9983L39.9983 244.39L54.7883 244.47H65.0083H73.6783C74.6783 244.47 75.6783 244.47 76.6783 244.53C78.7912 244.749 80.7981 245.565 82.4645 246.882C84.1308 248.2 85.3877 249.964 86.0883 251.97C86.4206 253.037 86.6582 254.131 86.7983 255.24C86.9783 256.37 87.1683 257.51 87.3583 258.65C87.7316 260.943 88.1083 263.277 88.4883 265.65C91.5983 284.44 94.4183 301.45 96.4883 313.8C97.4883 319.94 98.3783 324.91 98.9583 328.39C99.2583 330.08 99.4983 331.39 99.6583 332.39C99.7383 332.82 99.8083 333.16 99.8583 333.39C99.8678 333.507 99.8947 333.621 99.9383 333.73C99.9516 333.614 99.9516 333.496 99.9383 333.38C99.9383 333.12 99.8583 332.78 99.7983 332.38C99.6483 331.44 99.4483 330.11 99.1883 328.38C98.6383 324.89 97.8583 319.91 96.8883 313.76C94.8883 301.41 92.1183 284.39 89.0683 265.58C88.6816 263.233 88.3016 260.9 87.9283 258.58C87.7383 257.43 87.5483 256.3 87.3683 255.17C87.2192 254.031 86.975 252.908 86.6383 251.81C85.904 249.713 84.5858 247.869 82.839 246.496C81.0921 245.123 78.9894 244.278 76.7783 244.06C75.7183 243.98 74.7083 244.01 73.7083 244.01H65.0383H54.8183L40.0283 244.09L36.0283 244.14H34.9783L34.5983 244.34Z" fill="#263238"></path><path d="M161.028 333.92L163.308 421.86H158.308L157.018 335.81C157.018 335.81 156.958 330.68 153.018 331.11C150.018 331.44 104.578 336.72 104.578 336.72L89.2881 421.86H83.5281L99.0981 333.48L154.788 326.48C155.947 326.31 157.13 326.488 158.188 326.99C159.005 327.402 159.694 328.029 160.179 328.805C160.663 329.581 160.926 330.475 160.938 331.39C161.198 334.84 161.028 333.92 161.028 333.92Z" fill="#EBEBEB"></path><path d="M47.3782 240C47.3782 240 75.3782 331.17 109.138 323.76L108.578 319.46C108.578 319.46 82.5182 323.79 51.8482 239.91L47.3782 240Z" fill="#007FFF"></path><path d="M106.728 322.73C106.594 332.223 104.733 341.613 101.238 350.44C100.238 353 98.898 355.7 96.418 356.9C93.938 358.1 91.058 357.47 88.418 356.75C81.8794 354.946 75.501 352.605 69.348 349.75C67.098 348.7 64.728 347.44 63.578 345.24C62.198 342.61 62.928 339.42 63.718 336.56C66.238 327.38 69.068 318.287 72.208 309.28C72.858 307.41 75.868 300.17 75.868 300.17" fill="#007FFF"></path><path d="M72.5081 311C72.4799 311.162 72.4799 311.328 72.5081 311.49C72.5081 311.81 72.5081 312.28 72.5981 312.88C72.765 314.588 73.083 316.278 73.5481 317.93C74.2372 320.403 75.285 322.761 76.6581 324.93C78.3503 327.585 80.586 329.852 83.218 331.58C85.8466 333.328 88.8728 334.388 92.0181 334.66C94.5836 334.856 97.1604 334.474 99.558 333.54C101.169 332.915 102.66 332.019 103.968 330.89C104.322 330.578 104.656 330.244 104.968 329.89C105.083 329.776 105.184 329.648 105.268 329.51C105.268 329.51 104.778 329.97 103.848 330.72C102.514 331.765 101.026 332.598 99.438 333.19C97.0824 334.052 94.5681 334.393 92.0681 334.19C89.0111 333.91 86.0707 332.88 83.5081 331.19C80.9381 329.504 78.7482 327.3 77.0781 324.72C75.711 322.609 74.6473 320.317 73.9181 317.91C73.4264 316.273 73.0554 314.602 72.808 312.91C72.598 311.61 72.5481 311 72.5081 311Z" fill="#263238"></path><path d="M85.7881 336.3C85.9554 334.851 85.9554 333.388 85.7881 331.94C85.7748 330.48 85.5902 329.027 85.2381 327.61C85.0676 329.058 85.0676 330.522 85.2381 331.97C85.2483 333.43 85.433 334.884 85.7881 336.3Z" fill="#263238"></path><path d="M388.548 356C381.268 358.54 371.768 356.27 365.548 351.72C359.328 347.17 354.838 340.65 350.858 334.04C349.168 331.22 347.508 328.28 346.978 325.04C346.448 321.8 347.228 318.14 349.748 316.04C353.658 312.74 359.658 314.41 364.108 316.95C371.043 320.99 376.891 326.655 381.149 333.458C385.407 340.261 387.946 347.997 388.548 356Z" fill="#007FFF"></path><path d="M380.728 373.43C376.358 379.2 368.848 381.77 361.608 382.1C354.368 382.43 347.228 380.44 340.468 377.84C338.018 376.9 335.338 375.61 334.468 373.13C334.201 372.168 334.179 371.155 334.402 370.183C334.626 369.21 335.088 368.309 335.748 367.56C337.084 366.074 338.758 364.932 340.628 364.23C347.405 361.53 354.88 361.126 361.908 363.08C368.908 364.89 375.018 368.95 380.698 373.43" fill="#007FFF"></path><path d="M388.658 324.8C382.658 324.92 378.068 319.64 375.338 314.26C371.544 306.744 370.285 298.201 371.748 289.91C372.298 286.83 373.458 283.51 376.218 282.03C378.978 280.55 382.668 281.51 385.018 283.66C387.368 285.81 388.598 288.86 389.598 291.9C392.838 302.37 392.138 314.4 388.668 324.8" fill="#007FFF"></path><path d="M408.458 358.14C398.178 340.65 396.458 319.25 402.538 299.89C403.538 296.75 405.378 293.15 408.668 292.94C412.308 292.71 414.588 296.77 415.588 300.27C419.118 312.57 418.368 325.62 417.588 338.39C417.108 346.25 414.408 352.98 408.458 358.14Z" fill="#007FFF"></path><path d="M419.148 365.34C421.062 359.346 424.297 353.859 428.613 349.281C432.929 344.703 438.217 341.153 444.088 338.89C446.818 337.89 450.288 337.28 452.328 339.36C454.368 341.44 453.708 344.84 452.428 347.36C450.358 351.5 446.998 354.82 443.648 358C440.648 360.9 437.448 363.81 433.588 365.49C429.728 367.17 422.668 367.6 419.148 365.31" fill="#007FFF"></path><path d="M355.418 320.4L355.598 320.56L356.158 320.99L358.308 322.6L359.868 323.75C360.438 324.18 361.018 324.69 361.668 325.21C362.938 326.27 364.438 327.42 365.958 328.86L368.378 331.06C369.218 331.83 370.018 332.7 370.898 333.56C372.668 335.26 374.378 337.25 376.218 339.3C380.096 343.851 383.639 348.677 386.818 353.74C389.925 358.855 392.662 364.185 395.008 369.69C396.008 372.26 397.008 374.69 397.758 377.02C398.138 378.18 398.558 379.3 398.868 380.39L399.758 383.54C400.368 385.54 400.758 387.4 401.098 389.01C401.278 389.82 401.468 390.57 401.608 391.26L401.938 393.18C402.138 394.3 402.298 395.18 402.418 395.82C402.468 396.1 402.518 396.33 402.548 396.51C402.56 396.59 402.584 396.667 402.618 396.74C402.623 396.66 402.623 396.58 402.618 396.5C402.618 396.32 402.588 396.09 402.528 395.81C402.438 395.16 402.308 394.27 402.148 393.15C402.058 392.56 401.958 391.92 401.848 391.22C401.738 390.52 401.548 389.77 401.388 388.95C401.028 387.33 400.698 385.46 400.108 383.45C399.838 382.45 399.548 381.38 399.248 380.28C398.948 379.18 398.538 378.06 398.158 376.89C397.438 374.53 396.438 372.1 395.438 369.52C390.854 358.393 384.491 348.085 376.598 339C374.738 336.95 373.008 335 371.218 333.28C370.338 332.42 369.518 331.55 368.678 330.79L366.218 328.6C364.688 327.17 363.218 326.04 361.878 325C361.218 324.48 360.628 324 360.048 323.57L358.458 322.44L356.248 320.9L355.668 320.51C355.498 320.43 355.428 320.39 355.418 320.4Z" fill="#263238"></path><path d="M341.808 368.89C342.048 368.871 342.285 368.831 342.518 368.77C342.978 368.69 343.638 368.51 344.518 368.37C353.881 366.506 363.57 367.136 372.614 370.195C381.657 373.254 389.738 378.635 396.048 385.8C397.711 387.669 399.248 389.647 400.648 391.72C401.168 392.45 401.508 393.04 401.768 393.43C401.886 393.638 402.027 393.833 402.188 394.01C402.094 393.792 401.984 393.581 401.858 393.38C401.618 392.98 401.298 392.38 400.808 391.62C399.462 389.509 397.958 387.503 396.308 385.62C390.871 379.287 384.024 374.318 376.319 371.11C368.613 367.902 360.263 366.546 351.938 367.15C349.428 367.318 346.934 367.676 344.478 368.22C343.608 368.4 342.948 368.6 342.478 368.72C342.25 368.754 342.025 368.811 341.808 368.89Z" fill="#263238"></path><path d="M379.768 289C379.768 289 379.768 289.09 379.768 289.27C379.768 289.45 379.868 289.73 379.938 290.06C380.098 290.78 380.328 291.79 380.608 293.06C381.198 295.67 382.108 299.44 383.238 304.06C385.508 313.37 388.798 326.19 392.238 340.4C393.938 347.52 395.478 354.31 396.808 360.5C398.138 366.69 399.228 372.29 400.048 377.01C400.498 379.36 400.828 381.5 401.148 383.38C401.468 385.26 401.718 386.87 401.908 388.2C402.098 389.53 402.268 390.52 402.388 391.25C402.438 391.57 402.488 391.83 402.518 392.04C402.531 392.132 402.555 392.223 402.588 392.31C402.593 392.217 402.593 392.123 402.588 392.03C402.588 391.83 402.588 391.56 402.508 391.23C402.408 390.5 402.278 389.47 402.118 388.17C401.958 386.87 401.728 385.17 401.438 383.34C401.148 381.51 400.828 379.34 400.438 376.95C399.658 372.22 398.578 366.61 397.298 360.41C396.018 354.21 394.458 347.41 392.758 340.29C389.328 326.08 385.978 313.29 383.638 303.98C382.468 299.36 381.518 295.61 380.858 292.98C380.528 291.71 380.278 290.71 380.088 289.98L379.878 289.21C379.849 289.136 379.812 289.066 379.768 289Z" fill="#263238"></path><path d="M403.378 391C403.404 390.932 403.424 390.861 403.438 390.79L403.588 390.16C403.708 389.56 403.878 388.75 404.088 387.72C404.528 385.6 405.088 382.53 405.758 378.72C407.078 371.08 408.598 360.51 409.598 348.75C410.068 342.87 410.328 337.26 410.438 332.15C410.548 327.04 410.438 322.43 410.318 318.57C410.318 316.64 410.148 314.9 410.068 313.37C409.988 311.84 409.878 310.52 409.778 309.44C409.678 308.36 409.608 307.57 409.548 306.96C409.548 306.7 409.548 306.49 409.478 306.32C409.488 306.247 409.488 306.173 409.478 306.1C409.468 306.173 409.468 306.247 409.478 306.32C409.478 306.5 409.478 306.71 409.478 306.97C409.478 307.58 409.558 308.41 409.618 309.45C409.678 310.49 409.768 311.85 409.818 313.38C409.868 314.91 409.988 316.65 410.008 318.58C410.128 322.44 410.138 327.04 410.008 332.14C409.878 337.24 409.598 342.84 409.128 348.71C408.128 360.45 406.668 371.01 405.428 378.63C404.818 382.44 404.288 385.52 403.918 387.63C403.738 388.63 403.598 389.48 403.498 390.08C403.498 390.33 403.428 390.54 403.398 390.72C403.366 390.81 403.359 390.906 403.378 391Z" fill="#263238"></path><path d="M402.598 393.18C402.7 392.987 402.787 392.786 402.858 392.58C403.038 392.13 403.258 391.58 403.538 390.82C403.688 390.43 403.848 390.01 404.018 389.54C404.188 389.07 404.448 388.54 404.678 388.07L405.438 386.37C405.698 385.76 406.048 385.16 406.368 384.5C406.688 383.84 407.058 383.17 407.368 382.5C407.678 381.83 408.188 381.1 408.618 380.35C409.448 378.85 410.518 377.35 411.548 375.71C413.937 372.268 416.521 368.966 419.288 365.82C422.094 362.706 425.058 359.739 428.168 356.93C429.648 355.68 430.998 354.44 432.368 353.39L434.308 351.84L436.158 350.48C437.328 349.59 438.418 348.85 439.388 348.21C440.358 347.57 441.178 346.99 441.878 346.57L443.468 345.57C443.665 345.469 443.847 345.341 444.008 345.19C443.808 345.275 443.614 345.375 443.428 345.49L441.778 346.42C441.068 346.82 440.208 347.35 439.238 347.99C438.268 348.63 437.138 349.34 435.958 350.21L434.088 351.55L432.088 353.09C430.708 354.09 429.338 355.36 427.848 356.6C424.685 359.4 421.68 362.375 418.848 365.51C416.062 368.681 413.473 372.02 411.098 375.51C410.098 377.16 409.008 378.68 408.198 380.2L406.958 382.38C406.608 383.09 406.258 383.78 405.958 384.44C405.658 385.1 405.298 385.72 405.048 386.33C404.798 386.94 404.548 387.51 404.318 388.05L403.698 389.55C403.538 390.023 403.388 390.453 403.248 390.84L402.658 392.64C402.621 392.818 402.601 392.998 402.598 393.18Z" fill="#263238"></path><path d="M359.238 340.69C359.238 340.76 360.478 340.76 362.478 340.87C367.695 341.149 372.851 342.128 377.808 343.78C379.708 344.41 380.868 344.87 380.898 344.78C380.658 344.606 380.396 344.464 380.118 344.36C379.618 344.12 378.858 343.8 377.918 343.44C375.453 342.518 372.914 341.809 370.328 341.32C367.746 340.823 365.127 340.552 362.498 340.51C361.498 340.51 360.668 340.51 360.108 340.56C359.813 340.558 359.519 340.602 359.238 340.69Z" fill="#263238"></path><path d="M351.478 378.56C352.606 376.259 354.028 374.114 355.708 372.18C357.497 370.364 359.514 368.787 361.708 367.49C360.969 367.68 360.266 367.991 359.628 368.41C356.403 370.268 353.813 373.056 352.198 376.41C351.849 377.085 351.606 377.81 351.478 378.56Z" fill="#263238"></path><path d="M377.918 303.21C377.828 303.32 379.718 305.21 381.778 307.73C383.838 310.25 385.318 312.5 385.438 312.42C384.59 310.605 383.485 308.921 382.158 307.42C380.956 305.819 379.528 304.4 377.918 303.21Z" fill="#263238"></path><path d="M384.128 292.49C383.352 295.157 382.885 297.905 382.738 300.68C383.205 299.367 383.52 298.004 383.678 296.62C383.992 295.266 384.143 293.879 384.128 292.49Z" fill="#263238"></path><path d="M403.358 326.14C404.211 328.317 405.213 330.432 406.358 332.47C407.361 334.584 408.511 336.626 409.798 338.58C408.943 336.404 407.941 334.289 406.798 332.25C405.795 330.136 404.646 328.094 403.358 326.14Z" fill="#263238"></path><path d="M414.808 314.72C413.819 316.165 412.966 317.698 412.258 319.3C411.407 320.829 410.697 322.432 410.138 324.09C411.127 322.645 411.98 321.112 412.688 319.51C413.538 317.98 414.247 316.377 414.808 314.72Z" fill="#263238"></path><path d="M431.598 353.79C431.598 353.93 433.668 353.53 436.218 353.36C438.768 353.19 440.838 353.28 440.848 353.14C439.32 352.775 437.738 352.687 436.178 352.88C434.609 352.908 433.058 353.216 431.598 353.79Z" fill="#263238"></path><path d="M420.138 388.34L414.418 418.43C414.234 419.394 413.721 420.263 412.965 420.889C412.21 421.515 411.259 421.859 410.278 421.86H393.368C392.369 421.859 391.403 421.504 390.641 420.858C389.879 420.211 389.372 419.315 389.208 418.33L384.208 388.33L420.138 388.34Z" fill="#263238"></path><path d="M418.278 398.12H385.948L384.238 388.34H420.138L418.278 398.12Z" fill="#455A64"></path><path d="M418.278 398.12L417.598 401.69H386.448L385.948 398.12H418.278Z" fill="#FAFAFA"></path></svg> 